<svg width="53" height="52" viewBox="0 0 53 52" fill="none" xmlns="http://www.w3.org/2000/svg">
<g clip-path="url(#clip0_739_5979)">
<path d="M26.333 4.68203C33.2799 4.68203 34.1025 4.7125 36.8346 4.83437C39.3736 4.94609 40.7447 5.37266 41.6588 5.72813C42.8674 6.19531 43.7408 6.76406 44.6447 7.66797C45.5588 8.58203 46.1174 9.44531 46.5846 10.6539C46.94 11.568 47.3666 12.9492 47.4783 15.4781C47.6002 18.2203 47.6307 19.043 47.6307 25.9797C47.6307 32.9266 47.6002 33.7492 47.4783 36.4813C47.3666 39.0203 46.94 40.3914 46.5846 41.3055C46.1174 42.5141 45.5486 43.3875 44.6447 44.2914C43.7307 45.2055 42.8674 45.7641 41.6588 46.2313C40.7447 46.5867 39.3635 47.0133 36.8346 47.125C34.0924 47.2469 33.2697 47.2773 26.333 47.2773C19.3861 47.2773 18.5635 47.2469 15.8314 47.125C13.2924 47.0133 11.9213 46.5867 11.0072 46.2313C9.79863 45.7641 8.9252 45.1953 8.02129 44.2914C7.10723 43.3773 6.54863 42.5141 6.08145 41.3055C5.72598 40.3914 5.29941 39.0102 5.1877 36.4813C5.06582 33.7391 5.03535 32.9164 5.03535 25.9797C5.03535 19.0328 5.06582 18.2102 5.1877 15.4781C5.29941 12.9391 5.72598 11.568 6.08145 10.6539C6.54863 9.44531 7.11738 8.57188 8.02129 7.66797C8.93535 6.75391 9.79863 6.19531 11.0072 5.72813C11.9213 5.37266 13.3025 4.94609 15.8314 4.83437C18.5635 4.7125 19.3861 4.68203 26.333 4.68203ZM26.333 0C19.2744 0 18.3908 0.0304687 15.6182 0.152344C12.8557 0.274219 10.9564 0.721094 9.31113 1.36094C7.59473 2.03125 6.14238 2.91484 4.7002 4.36719C3.24785 5.80938 2.36426 7.26172 1.69395 8.96797C1.0541 10.6234 0.607227 12.5125 0.485352 15.275C0.363477 18.0578 0.333008 18.9414 0.333008 26C0.333008 33.0586 0.363477 33.9422 0.485352 36.7148C0.607227 39.4773 1.0541 41.3766 1.69395 43.0219C2.36426 44.7383 3.24785 46.1906 4.7002 47.6328C6.14238 49.075 7.59473 49.9688 9.30098 50.6289C10.9564 51.2688 12.8455 51.7156 15.608 51.8375C18.3807 51.9594 19.2643 51.9898 26.3229 51.9898C33.3814 51.9898 34.265 51.9594 37.0377 51.8375C39.8002 51.7156 41.6994 51.2688 43.3447 50.6289C45.051 49.9688 46.5033 49.075 47.9455 47.6328C49.3877 46.1906 50.2814 44.7383 50.9416 43.032C51.5814 41.3766 52.0283 39.4875 52.1502 36.725C52.2721 33.9523 52.3025 33.0688 52.3025 26.0102C52.3025 18.9516 52.2721 18.068 52.1502 15.2953C52.0283 12.5328 51.5814 10.6336 50.9416 8.98828C50.3018 7.26172 49.4182 5.80938 47.9658 4.36719C46.5236 2.925 45.0713 2.03125 43.365 1.37109C41.7096 0.73125 39.8205 0.284375 37.058 0.1625C34.2752 0.0304688 33.3916 0 26.333 0Z" fill="#E76788"/>
<path d="M26.333 12.6445C18.9596 12.6445 12.9775 18.6266 12.9775 26C12.9775 33.3734 18.9596 39.3555 26.333 39.3555C33.7064 39.3555 39.6885 33.3734 39.6885 26C39.6885 18.6266 33.7064 12.6445 26.333 12.6445ZM26.333 34.6633C21.5494 34.6633 17.6697 30.7836 17.6697 26C17.6697 21.2164 21.5494 17.3367 26.333 17.3367C31.1166 17.3367 34.9963 21.2164 34.9963 26C34.9963 30.7836 31.1166 34.6633 26.333 34.6633Z" fill="#E76788"/>
<path d="M43.3346 12.116C43.3346 13.8426 41.933 15.234 40.2166 15.234C38.49 15.234 37.0986 13.8324 37.0986 12.116C37.0986 10.3895 38.5002 8.99805 40.2166 8.99805C41.933 8.99805 43.3346 10.3996 43.3346 12.116Z" fill="#E76788"/>
</g>
<defs>
<clipPath id="clip0_739_5979">
<rect width="52" height="52" fill="white" transform="translate(0.333008)"/>
</clipPath>
</defs>
</svg>
