<svg width="52" height="52" viewBox="0 0 52 52" fill="none" xmlns="http://www.w3.org/2000/svg">
<g clip-path="url(#clip0_739_5977)">
<path d="M48.1508 0H3.83906C1.71641 0 0 1.67578 0 3.74766V48.2422C0 50.3141 1.71641 52 3.83906 52H48.1508C50.2734 52 52 50.3141 52 48.2523V3.74766C52 1.67578 50.2734 0 48.1508 0ZM15.4273 44.3117H7.70859V19.4898H15.4273V44.3117ZM11.568 16.1078C9.08984 16.1078 7.08906 14.107 7.08906 11.6391C7.08906 9.17109 9.08984 7.17031 11.568 7.17031C14.0359 7.17031 16.0367 9.17109 16.0367 11.6391C16.0367 14.0969 14.0359 16.1078 11.568 16.1078ZM44.3117 44.3117H36.6031V32.2461C36.6031 29.3719 36.5523 25.6648 32.5914 25.6648C28.5797 25.6648 27.9703 28.8031 27.9703 32.043V44.3117H20.2719V19.4898H27.6656V22.882H27.7672C28.793 20.932 31.3117 18.8703 35.0594 18.8703C42.8695 18.8703 44.3117 24.0094 44.3117 30.6922V44.3117Z" fill="#E76788"/>
</g>
<defs>
<clipPath id="clip0_739_5977">
<rect width="52" height="52" fill="white"/>
</clipPath>
</defs>
</svg>
