<svg width="53" height="52" viewBox="0 0 53 52" fill="none" xmlns="http://www.w3.org/2000/svg">
<g clip-path="url(#clip0_739_5978)">
<path d="M17.0257 47.1256C36.6435 47.1256 47.3766 30.8685 47.3766 16.7746C47.3766 16.3176 47.3664 15.8504 47.3461 15.3934C49.4341 13.8834 51.2359 12.0132 52.667 9.87042C50.7225 10.7356 48.6579 11.3006 46.5438 11.5462C48.7698 10.2119 50.4365 8.1158 51.235 5.64644C49.1409 6.88748 46.8507 7.76294 44.4628 8.23527C42.8538 6.52566 40.7265 5.3937 38.4096 5.01439C36.0928 4.63508 33.7156 5.02955 31.6454 6.13682C29.5753 7.24409 27.9276 9.00247 26.957 11.1401C25.9864 13.2778 25.7471 15.6756 26.276 17.9629C22.0357 17.7501 17.8875 16.6486 14.1003 14.7298C10.3131 12.811 6.97133 10.1177 4.29176 6.82456C2.92986 9.17264 2.51311 11.9512 3.12623 14.5955C3.73934 17.2398 5.33629 19.5514 7.59254 21.0606C5.89869 21.0068 4.24194 20.5507 2.75918 19.7301V19.8621C2.75766 22.3263 3.60954 24.7149 5.17 26.6219C6.73046 28.529 8.90319 29.8368 11.3189 30.3231C9.74978 30.7524 8.10295 30.8149 6.50582 30.5059C7.18748 32.6251 8.51373 34.4785 10.2995 35.8077C12.0853 37.1368 14.2414 37.8752 16.4671 37.9199C12.6886 40.888 8.02104 42.4979 3.21621 42.4903C2.36411 42.489 1.51286 42.4367 0.666992 42.3339C5.54818 45.4654 11.2263 47.1286 17.0257 47.1256Z" fill="#E76788"/>
</g>
<defs>
<clipPath id="clip0_739_5978">
<rect width="52" height="52" fill="white" transform="translate(0.666992)"/>
</clipPath>
</defs>
</svg>
