<svg xmlns="http://www.w3.org/2000/svg" width="48" height="48" viewBox="0 0 48 48" fill="none">
  <path d="M4 25.2197H38" stroke="#339933" stroke-width="1.5" stroke-miterlimit="10" stroke-linecap="round" stroke-linejoin="round"/>
  <path d="M38 20.5596V34.8596C37.94 40.5596 36.3799 41.9996 30.4399 41.9996H11.5601C5.52006 41.9996 4 40.4996 4 34.5396V20.5596C4 15.1596 5.26 13.4196 10 13.1396C10.48 13.1196 11.0001 13.0996 11.5601 13.0996H30.4399C36.4799 13.0996 38 14.5996 38 20.5596Z" stroke="#484848" stroke-width="1.5" stroke-linecap="round" stroke-linejoin="round"/>
  <path d="M44 13.46V27.44C44 32.84 42.74 34.58 38 34.86V20.56C38 14.6 36.4799 13.1 30.4399 13.1H11.5601C11.0001 13.1 10.48 13.12 10 13.14C10.06 7.44 11.6201 6 17.5601 6H36.4399C42.4799 6 44 7.5 44 13.46Z" stroke="#484848" stroke-width="1.5" stroke-linecap="round" stroke-linejoin="round"/>
  <path d="M10.5 35.6201H13.9399" stroke="#339933" stroke-width="1.5" stroke-miterlimit="10" stroke-linecap="round" stroke-linejoin="round"/>
  <path d="M18.2207 35.6201H25.1007" stroke="#339933" stroke-width="1.5" stroke-miterlimit="10" stroke-linecap="round" stroke-linejoin="round"/>
</svg>