<svg width="24" height="24" viewBox="0 0 24 24" fill="none" xmlns="http://www.w3.org/2000/svg">
<path d="M10.5 20C5.26341 20 1 15.7366 1 10.5C1 5.26341 5.26341 1 10.5 1C15.7366 1 20 5.26341 20 10.5C20 15.7366 15.7366 20 10.5 20ZM10.5 2.39024C6.02341 2.39024 2.39024 6.03268 2.39024 10.5C2.39024 14.9673 6.02341 18.6098 10.5 18.6098C14.9766 18.6098 18.6098 14.9673 18.6098 10.5C18.6098 6.03268 14.9766 2.39024 10.5 2.39024Z" fill="#292D32"/>
<path d="M21.7167 23C21.3906 23 21.0644 22.8799 20.8069 22.6226L17.3734 19.1916C16.8755 18.6941 16.8755 17.8706 17.3734 17.3731C17.8712 16.8756 18.6953 16.8756 19.1931 17.3731L22.6266 20.8041C23.1245 21.3016 23.1245 22.1251 22.6266 22.6226C22.3691 22.8799 22.0429 23 21.7167 23Z" fill="#292D32"/>
</svg>
