<svg width="282" height="150" viewBox="0 0 282 150" fill="none" xmlns="http://www.w3.org/2000/svg">
<g filter="url(#filter0_d_2653_1461)">
<g clip-path="url(#clip0_2653_1461)">
<rect x="20" y="20" width="242" height="110" rx="10" fill="#F5F5F5"/>
<path d="M-69.51 45.2359L-69.4399 50.2303C-68.9327 86.39 -29.8238 108.752 1.59619 90.8473L6.11163 88.2742C35.6444 71.4452 72.3735 92.625 72.6012 126.615L72.6808 138.502C72.8456 163.096 97.1076 180.262 120.354 172.234V172.234" stroke="#339933" stroke-opacity="0.15" stroke-width="0.653416"/>
<path d="M-73.6457 48.107L-73.5757 53.1014C-73.0685 89.2611 -33.9596 111.623 -2.53955 93.7184L1.97588 91.1453C31.5086 74.3163 68.2377 95.4961 68.4654 129.486L68.5451 141.373C68.7098 165.967 92.9719 183.134 116.218 175.105V175.105" stroke="#339933" stroke-opacity="0.15" stroke-width="0.653416"/>
<path d="M-77.7805 50.9781L-77.7104 55.9725C-77.2032 92.1322 -38.0943 114.494 -6.67432 96.5894L-2.15888 94.0164C27.3739 77.1874 64.103 98.3672 64.3307 132.358L64.4103 144.245C64.5751 168.838 88.8371 186.005 112.084 177.976V177.976" stroke="#339933" stroke-opacity="0.15" stroke-width="0.653416"/>
<path d="M-81.9162 53.8492L-81.8462 58.8435C-81.339 95.0033 -42.2301 117.365 -10.8101 99.4605L-6.29462 96.8875C23.2381 80.0585 59.9672 101.238 60.1949 135.229L60.2746 147.116C60.4393 171.709 84.7014 188.876 107.948 180.847V180.847" stroke="#339933" stroke-opacity="0.15" stroke-width="0.653416"/>
<path d="M-86.051 56.7203L-85.981 61.7146C-85.4737 97.8744 -46.3648 120.236 -14.9448 102.332L-10.4294 99.7586C19.1034 82.9296 55.8324 104.109 56.0602 138.1L56.1398 149.987C56.3046 174.58 80.5666 191.747 103.813 183.718V183.718" stroke="#339933" stroke-opacity="0.15" stroke-width="0.653416"/>
<path d="M-90.1868 59.5914L-90.1167 64.5857C-89.6095 100.745 -50.5006 123.107 -19.0806 105.203L-14.5651 102.63C14.9676 85.8007 51.6967 106.98 51.9244 140.971L52.0041 152.858C52.1688 177.451 76.4309 194.618 99.6774 186.589V186.589" stroke="#339933" stroke-opacity="0.15" stroke-width="0.653416"/>
<path d="M-94.3225 62.4624L-94.2524 67.4568C-93.7452 103.617 -54.6363 125.978 -23.2163 108.074L-18.7009 105.501C10.8319 88.6718 47.561 109.852 47.7887 143.842L47.8683 155.729C48.0331 180.322 72.2951 197.489 95.5417 189.46V189.46" stroke="#339933" stroke-opacity="0.15" stroke-width="0.653416"/>
<path d="M-98.4573 65.3335L-98.3872 70.3279C-97.88 106.488 -58.7711 128.849 -27.3511 110.945L-22.8356 108.372C6.69711 91.5428 43.4262 112.723 43.6539 146.713L43.7335 158.6C43.8983 183.193 68.1604 200.36 91.4069 192.332V192.332" stroke="#339933" stroke-opacity="0.15" stroke-width="0.653416"/>
<path d="M-102.593 68.2046L-102.523 73.199C-102.016 109.359 -62.9068 131.72 -31.4868 113.816L-26.9714 111.243C2.56136 94.4139 39.2905 115.594 39.5182 149.584L39.5978 161.471C39.7626 186.064 64.0246 203.231 87.2712 195.203V195.203" stroke="#339933" stroke-opacity="0.15" stroke-width="0.653416"/>
<path d="M-106.728 71.0757L-106.658 76.0701C-106.15 112.23 -67.0416 134.592 -35.6216 116.687L-31.1061 114.114C-1.5734 97.285 35.1557 118.465 35.3834 152.455L35.463 164.342C35.6278 188.936 59.8899 206.102 83.1364 198.074V198.074" stroke="#339933" stroke-opacity="0.15" stroke-width="0.653416"/>
<path d="M-110.864 73.9468L-110.793 78.9412C-110.286 115.101 -71.1773 137.463 -39.7573 119.558L-35.2419 116.985C-5.70914 100.156 31.0199 121.336 31.2477 155.326L31.3273 167.213C31.4921 191.807 55.7541 208.973 79.0007 200.945V200.945" stroke="#339933" stroke-opacity="0.15" stroke-width="0.653416"/>
<path d="M-114.999 76.8179L-114.929 81.8123C-114.422 117.972 -75.3131 140.334 -43.8931 122.429L-39.3776 119.856C-9.84489 103.027 26.8842 124.207 27.1119 158.197L27.1916 170.084C27.3563 194.678 51.6184 211.844 74.8649 203.816V203.816" stroke="#339933" stroke-opacity="0.15" stroke-width="0.653416"/>
<path d="M-119.134 79.689L-119.064 84.6834C-118.557 120.843 -79.4478 143.205 -48.0278 125.3L-43.5124 122.727C-13.9797 105.898 22.7494 127.078 22.9771 161.069L23.0568 172.955C23.2215 197.549 47.4836 214.716 70.7302 206.687V206.687" stroke="#339933" stroke-opacity="0.15" stroke-width="0.653416"/>
<path d="M-123.27 82.5601L-123.2 87.5545C-122.692 123.714 -83.5836 146.076 -52.1636 128.171L-47.6481 125.598C-18.1154 108.769 18.6137 129.949 18.8414 163.94L18.921 175.827C19.0858 200.42 43.3479 217.587 66.5944 209.558V209.558" stroke="#339933" stroke-opacity="0.15" stroke-width="0.653416"/>
<path d="M-127.405 85.4312L-127.334 90.4256C-126.827 126.585 -87.7183 148.947 -56.2983 131.043L-51.7829 128.469C-22.2502 111.641 14.4789 132.82 14.7066 166.811L14.7863 178.698C14.951 203.291 39.2131 220.458 62.4597 212.429V212.429" stroke="#339933" stroke-opacity="0.15" stroke-width="0.653416"/>
<path d="M-131.54 88.2349L-131.47 93.2293C-130.963 129.389 -91.8541 151.751 -60.4341 133.846L-55.9186 131.273C-26.3859 114.444 10.3432 135.624 10.5709 169.614L10.6505 181.501C10.8153 206.095 35.0774 223.261 58.3239 215.233V215.233" stroke="#339933" stroke-opacity="0.15" stroke-width="0.653416"/>
<path d="M-135.676 91.0376L-135.606 96.032C-135.099 132.192 -95.9898 154.553 -64.5698 136.649L-60.0544 134.076C-30.5216 117.247 6.20744 138.427 6.43516 172.417L6.51479 184.304C6.67955 208.897 30.9416 226.064 54.1882 218.036V218.036" stroke="#339933" stroke-opacity="0.15" stroke-width="0.653416"/>
<path d="M-139.811 93.8414L-139.741 98.8357C-139.233 134.995 -100.125 157.357 -68.7046 139.453L-64.1892 136.88C-34.6564 120.051 2.07268 141.23 2.30039 175.221L2.38003 187.108C2.54479 211.701 26.8068 228.868 50.0534 220.839V220.839" stroke="#339933" stroke-opacity="0.15" stroke-width="0.653416"/>
<path d="M-143.947 96.6441L-143.876 101.638C-143.369 137.798 -104.26 160.16 -72.8403 142.255L-68.3249 139.682C-38.7922 122.853 -2.06307 144.033 -1.83535 178.024L-1.75572 189.911C-1.59096 214.504 22.6711 231.671 45.9177 223.642V223.642" stroke="#339933" stroke-opacity="0.15" stroke-width="0.653416"/>
<path d="M-148.081 99.4478L-148.011 104.442C-147.504 140.602 -108.395 162.964 -76.9751 145.059L-72.4597 142.486C-42.9269 125.657 -6.19783 146.837 -5.97012 180.827L-5.89048 192.714C-5.72572 217.308 18.5363 234.474 41.7829 226.446V226.446" stroke="#339933" stroke-opacity="0.15" stroke-width="0.653416"/>
<path d="M-152.217 102.251L-152.147 107.245C-151.64 143.405 -112.531 165.766 -81.1108 147.862L-76.5954 145.289C-47.0627 128.46 -10.3336 149.64 -10.1059 183.63L-10.0262 195.517C-9.86146 220.11 14.4006 237.277 37.6472 229.249V229.249" stroke="#339933" stroke-opacity="0.15" stroke-width="0.653416"/>
<path d="M-156.353 105.054L-156.283 110.049C-155.775 146.208 -116.667 168.57 -85.2466 150.666L-80.7311 148.093C-51.1984 131.264 -14.4693 152.443 -14.2416 186.434L-14.162 198.321C-13.9972 222.914 10.2649 240.081 33.5114 232.052V232.052" stroke="#339933" stroke-opacity="0.15" stroke-width="0.653416"/>
<path d="M-160.488 107.857L-160.417 112.851C-159.91 149.011 -120.801 171.373 -89.3813 153.468L-84.8659 150.895C-55.3332 134.066 -18.6041 155.246 -18.3764 189.236L-18.2967 201.123C-18.132 225.717 6.13009 242.884 29.3767 234.855V234.855" stroke="#339933" stroke-opacity="0.15" stroke-width="0.653416"/>
<path d="M-164.623 110.66L-164.553 115.654C-164.046 151.814 -124.937 174.176 -93.5171 156.271L-89.0017 153.698C-59.4689 136.869 -22.7398 158.049 -22.5121 192.039L-22.4325 203.926C-22.2677 228.52 1.99435 245.686 25.2409 237.658V237.658" stroke="#339933" stroke-opacity="0.15" stroke-width="0.653416"/>
<path d="M-168.758 113.463L-168.688 118.458C-168.181 154.618 -129.072 176.979 -97.6519 159.075L-93.1364 156.502C-63.6037 139.673 -26.8746 160.853 -26.6469 194.843L-26.5672 206.73C-26.4025 231.323 -2.14042 248.49 21.1061 240.461V240.461" stroke="#339933" stroke-opacity="0.15" stroke-width="0.653416"/>
<path d="M-172.894 116.266L-172.824 121.261C-172.317 157.42 -133.208 179.782 -101.788 161.878L-97.2722 159.304C-67.7394 142.475 -31.0103 163.655 -30.7826 197.646L-30.703 209.533C-30.5382 234.126 -6.27616 251.293 16.9704 243.264V243.264" stroke="#339933" stroke-opacity="0.15" stroke-width="0.653416"/>
<path d="M-177.03 119.07L-176.959 124.064C-176.452 160.224 -137.343 182.586 -105.923 164.681L-101.408 162.108C-71.8752 145.279 -35.1461 166.459 -34.9184 200.449L-34.8387 212.336C-34.674 236.93 -10.4119 254.096 12.8347 246.068V246.068" stroke="#339933" stroke-opacity="0.15" stroke-width="0.653416"/>
<path d="M-181.164 121.873L-181.094 126.867C-180.587 163.027 -141.478 185.388 -110.058 167.484L-105.543 164.911C-76.0099 148.082 -39.2808 169.262 -39.0531 203.252L-38.9735 215.139C-38.8087 239.732 -14.5467 256.899 8.69989 248.871V248.871" stroke="#339933" stroke-opacity="0.15" stroke-width="0.653416"/>
<path d="M-185.3 124.676L-185.23 129.671C-184.723 165.83 -145.614 188.192 -114.194 170.288L-109.678 167.715C-80.1457 150.886 -43.4166 172.065 -43.1889 206.056L-43.1092 217.943C-42.9445 242.536 -18.6824 259.703 4.56415 251.674V251.674" stroke="#339933" stroke-opacity="0.15" stroke-width="0.653416"/>
<path d="M337.435 110.97L337.365 105.976C336.858 69.816 297.749 47.4544 266.329 65.3588L261.813 67.9319C232.28 84.7609 195.551 63.5811 195.324 29.5907L195.244 17.7037C195.079 -6.88966 170.817 -24.0564 147.571 -16.0278V-16.0278" stroke="#339933" stroke-opacity="0.15" stroke-width="0.653416"/>
<path d="M341.571 108.099L341.5 103.105C340.993 66.9449 301.884 44.5833 270.464 62.4877L265.949 65.0608C236.416 81.8898 199.687 60.71 199.459 26.7196L199.38 14.8326C199.215 -9.76075 174.953 -26.9275 151.706 -18.8989V-18.8989" stroke="#339933" stroke-opacity="0.15" stroke-width="0.653416"/>
<path d="M345.705 105.228L345.635 100.234C345.128 64.0738 306.019 41.7122 274.599 59.6166L270.084 62.1897C240.551 79.0187 203.822 57.8389 203.594 23.8485L203.514 11.9615C203.35 -12.6318 179.088 -29.7986 155.841 -21.77V-21.77" stroke="#339933" stroke-opacity="0.15" stroke-width="0.653416"/>
<path d="M349.841 102.357L349.771 97.3625C349.264 61.2027 310.155 38.8411 278.735 56.7455L274.219 59.3186C244.687 76.1476 207.958 54.9678 207.73 20.9774L207.65 9.09042C207.485 -15.5029 183.223 -32.6697 159.977 -24.6411V-24.6411" stroke="#339933" stroke-opacity="0.15" stroke-width="0.653416"/>
<path d="M353.976 99.4858L353.906 94.4914C353.399 58.3316 314.29 35.97 282.87 53.8744L278.354 56.4475C248.821 73.2765 212.092 52.0967 211.865 18.1063L211.785 6.21932C211.62 -18.374 187.358 -35.5408 164.112 -27.5122V-27.5122" stroke="#339933" stroke-opacity="0.15" stroke-width="0.653416"/>
<path d="M358.112 96.6147L358.041 91.6203C357.534 55.4606 318.425 33.0989 287.005 51.0033L282.49 53.5764C252.957 70.4054 216.228 49.2256 216 15.2352L215.921 3.34823C215.756 -21.2451 191.494 -38.4119 168.247 -30.3833V-30.3833" stroke="#339933" stroke-opacity="0.15" stroke-width="0.653416"/>
<path d="M362.247 93.7436L362.177 88.7492C361.67 52.5895 322.561 30.2278 291.141 48.1322L286.626 50.7053C257.093 67.5343 220.364 46.3545 220.136 12.3641L220.056 0.477136C219.892 -24.1162 195.63 -41.283 172.383 -33.2544V-33.2544" stroke="#339933" stroke-opacity="0.15" stroke-width="0.653416"/>
<path d="M366.382 90.8725L366.312 85.8781C365.805 49.7184 326.696 27.3567 295.276 45.2611L290.76 47.8342C261.228 64.6632 224.499 43.4834 224.271 9.49303L224.191 -2.39396C224.026 -26.9873 199.764 -44.1541 176.518 -36.1255V-36.1255" stroke="#339933" stroke-opacity="0.15" stroke-width="0.653416"/>
<path d="M370.518 88.0014L370.448 83.007C369.941 46.8473 330.832 24.4856 299.412 42.39L294.896 44.9631C265.363 61.7921 228.634 40.6123 228.407 6.62193L228.327 -5.26505C228.162 -29.8584 203.9 -47.0251 180.654 -38.9966V-38.9966" stroke="#339933" stroke-opacity="0.15" stroke-width="0.653416"/>
<path d="M374.653 85.1303L374.583 80.1359C374.075 43.9762 334.966 21.6145 303.546 39.519L299.031 42.092C269.498 58.921 232.769 37.7412 232.541 3.75084L232.462 -8.13614C232.297 -32.7295 208.035 -49.8962 184.788 -41.8677V-41.8677" stroke="#339933" stroke-opacity="0.15" stroke-width="0.653416"/>
<path d="M378.788 82.2592L378.718 77.2648C378.211 41.1051 339.102 18.7434 307.682 36.6479L303.167 39.2209C273.634 56.0499 236.905 34.8701 236.677 0.879745L236.597 -11.0072C236.433 -35.6006 212.171 -52.7673 188.924 -44.7388V-44.7388" stroke="#339933" stroke-opacity="0.15" stroke-width="0.653416"/>
<path d="M382.924 79.3881L382.854 74.3938C382.347 38.234 343.238 15.8723 311.818 33.7768L307.302 36.3498C277.77 53.1788 241.041 31.999 240.813 -1.99135L240.733 -13.8783C240.568 -38.4717 216.306 -55.6384 193.06 -47.6099V-47.6099" stroke="#339933" stroke-opacity="0.15" stroke-width="0.653416"/>
<path d="M387.059 76.517L386.989 71.5227C386.482 35.3629 347.373 13.0012 315.953 30.9057L311.437 33.4788C281.904 50.3077 245.175 29.1279 244.948 -4.86244L244.868 -16.7494C244.703 -41.3428 220.441 -58.5095 197.195 -50.481V-50.481" stroke="#339933" stroke-opacity="0.15" stroke-width="0.653416"/>
<path d="M391.195 73.6459L391.125 68.6516C390.617 32.4918 351.508 10.1301 320.088 28.0346L315.573 30.6077C286.04 47.4367 249.311 26.2568 249.083 -7.73354L249.004 -19.6205C248.839 -44.2139 224.577 -61.3806 201.33 -53.3521V-53.3521" stroke="#339933" stroke-opacity="0.15" stroke-width="0.653416"/>
<path d="M395.329 70.7749L395.259 65.7805C394.752 29.6207 355.643 7.25905 324.223 25.1635L319.708 27.7366C290.175 44.5656 253.446 23.3858 253.218 -10.6046L253.139 -22.4916C252.974 -47.085 228.712 -64.2517 205.465 -56.2232V-56.2232" stroke="#339933" stroke-opacity="0.15" stroke-width="0.653416"/>
<path d="M399.465 67.9711L399.395 62.9768C398.888 26.817 359.779 4.45534 328.359 22.3598L323.843 24.9329C294.311 41.7619 257.582 20.582 257.354 -13.4083L257.274 -25.2953C257.109 -49.8887 232.847 -67.0554 209.601 -59.0269V-59.0269" stroke="#339933" stroke-opacity="0.15" stroke-width="0.653416"/>
<path d="M403.601 65.1684L403.531 60.174C403.024 24.0143 363.915 1.65261 332.495 19.557L327.979 22.1301C298.446 38.9591 261.717 17.7793 261.49 -16.2111L261.41 -28.0981C261.245 -52.6914 236.983 -69.8582 213.737 -61.8296V-61.8296" stroke="#339933" stroke-opacity="0.15" stroke-width="0.653416"/>
<path d="M407.736 62.3647L407.666 57.3703C407.158 21.2106 368.049 -1.15111 336.629 16.7533L332.114 19.3264C302.581 36.1554 265.852 14.9756 265.624 -19.0148L265.545 -30.9018C265.38 -55.4951 241.118 -72.6619 217.871 -64.6333V-64.6333" stroke="#339933" stroke-opacity="0.15" stroke-width="0.653416"/>
<path d="M411.871 59.562L411.801 54.5676C411.294 18.4078 372.185 -3.95384 340.765 13.9506L336.25 16.5237C306.717 33.3527 269.988 12.1729 269.76 -21.8175L269.681 -33.7045C269.516 -58.2979 245.254 -75.4646 222.007 -67.436V-67.436" stroke="#339933" stroke-opacity="0.15" stroke-width="0.653416"/>
<path d="M416.006 56.7583L415.936 51.7639C415.429 15.6041 376.32 -6.75755 344.9 11.1469L340.384 13.72C310.852 30.549 274.123 9.36915 273.895 -24.6212L273.815 -36.5082C273.651 -61.1016 249.388 -78.2683 226.142 -70.2398V-70.2398" stroke="#339933" stroke-opacity="0.15" stroke-width="0.653416"/>
<path d="M420.142 53.9555L420.072 48.9611C419.565 12.8014 380.456 -9.56029 349.036 8.34415L344.52 10.9172C314.987 27.7462 278.258 6.56642 278.031 -27.424L277.951 -39.3109C277.786 -63.9043 253.524 -81.071 230.278 -73.0425V-73.0425" stroke="#339933" stroke-opacity="0.15" stroke-width="0.653416"/>
<path d="M424.278 51.1518L424.208 46.1574C423.7 9.99766 384.591 -12.364 353.171 5.54044L348.656 8.11352C319.123 24.9425 282.394 3.76271 282.166 -30.2277L282.087 -42.1147C281.922 -66.708 257.66 -83.8748 234.413 -75.8462V-75.8462" stroke="#339933" stroke-opacity="0.15" stroke-width="0.653416"/>
<path d="M428.412 48.3491L428.342 43.3547C427.835 7.19493 388.726 -15.1667 357.306 2.7377L352.791 5.31079C323.258 22.1398 286.529 0.959972 286.301 -33.0304L286.222 -44.9174C286.057 -69.5108 261.795 -86.6775 238.548 -78.6489V-78.6489" stroke="#339933" stroke-opacity="0.15" stroke-width="0.653416"/>
<path d="M432.548 45.5463L432.478 40.552C431.971 4.3922 392.862 -17.9695 361.442 -0.0650316L356.926 2.50805C327.394 19.337 290.665 -1.84276 290.437 -35.8331L290.357 -47.7201C290.192 -72.3135 265.93 -89.4802 242.684 -81.4517V-81.4517" stroke="#339933" stroke-opacity="0.15" stroke-width="0.653416"/>
<path d="M436.683 42.7426L436.613 37.7482C436.106 1.58848 396.997 -20.7732 365.577 -2.86874L361.061 -0.295659C331.528 16.5333 294.799 -4.64647 294.572 -38.6369L294.492 -50.5238C294.327 -75.1172 270.065 -92.2839 246.819 -84.2554V-84.2554" stroke="#339933" stroke-opacity="0.15" stroke-width="0.653416"/>
<path d="M440.819 39.9399L440.749 34.9455C440.241 -1.21425 401.132 -23.5759 369.712 -5.67148L365.197 -3.09839C335.664 13.7306 298.935 -7.44921 298.707 -41.4396L298.628 -53.3266C298.463 -77.9199 274.201 -95.0867 250.954 -87.0581V-87.0581" stroke="#339933" stroke-opacity="0.15" stroke-width="0.653416"/>
<path d="M444.953 37.1362L444.883 32.1418C444.376 -4.01796 405.267 -26.3796 373.847 -8.47519L369.332 -5.9021C339.799 10.9269 303.07 -10.2529 302.842 -44.2433L302.763 -56.1303C302.598 -80.7236 278.336 -97.8904 255.089 -89.8618V-89.8618" stroke="#339933" stroke-opacity="0.15" stroke-width="0.653416"/>
<path d="M449.089 34.3334L449.019 29.3391C448.512 -6.8207 409.403 -29.1824 377.983 -11.2779L373.467 -8.70484C343.935 8.12415 307.206 -13.0557 306.978 -47.046L306.898 -58.933C306.734 -83.5264 282.471 -100.693 259.225 -92.6646V-92.6646" stroke="#339933" stroke-opacity="0.15" stroke-width="0.653416"/>
<path d="M453.225 31.5297L453.155 26.5354C452.648 -9.62441 413.539 -31.9861 382.119 -14.0816L377.603 -11.5085C348.07 5.32044 311.341 -15.8594 311.114 -49.8497L311.034 -61.7367C310.869 -86.3301 286.607 -103.497 263.361 -95.4683V-95.4683" stroke="#339933" stroke-opacity="0.15" stroke-width="0.653416"/>
</g>
</g>
<defs>
<filter id="filter0_d_2653_1461" x="0" y="0" width="282" height="150" filterUnits="userSpaceOnUse" color-interpolation-filters="sRGB">
<feFlood flood-opacity="0" result="BackgroundImageFix"/>
<feColorMatrix in="SourceAlpha" type="matrix" values="0 0 0 0 0 0 0 0 0 0 0 0 0 0 0 0 0 0 127 0" result="hardAlpha"/>
<feOffset/>
<feGaussianBlur stdDeviation="10"/>
<feComposite in2="hardAlpha" operator="out"/>
<feColorMatrix type="matrix" values="0 0 0 0 0 0 0 0 0 0 0 0 0 0 0 0 0 0 0.05 0"/>
<feBlend mode="normal" in2="BackgroundImageFix" result="effect1_dropShadow_2653_1461"/>
<feBlend mode="normal" in="SourceGraphic" in2="effect1_dropShadow_2653_1461" result="shape"/>
</filter>
<clipPath id="clip0_2653_1461">
<rect x="20" y="20" width="242" height="110" rx="10" fill="white"/>
</clipPath>
</defs>
</svg>
