<svg xmlns="http://www.w3.org/2000/svg" width="48" height="43" viewBox="0 0 48 43" fill="none">
  <path d="M43.94 32.1214C43.94 32.7523 43.78 33.4007 43.44 34.0316C43.1 34.6624 42.66 35.2582 42.08 35.819C41.1 36.7653 40.02 37.4487 38.8 37.8868C37.6 38.3249 36.3 38.5527 34.9 38.5527C32.86 38.5527 30.68 38.1322 28.38 37.2735C26.08 36.4148 23.78 35.2582 21.5 33.8037C19.2 32.3317 17.02 30.702 14.94 28.897C12.88 27.0746 11.02 25.1645 9.36 23.1667C7.72 21.169 6.4 19.1713 5.44 17.1911C4.48 15.1933 4 13.2832 4 11.4607C4 10.2691 4.24 9.13006 4.72 8.07863C5.2 7.00967 5.96 6.02833 7.02 5.15213C8.3 4.04812 9.7 3.50488 11.18 3.50488C11.74 3.50488 12.3 3.61003 12.8 3.82031C13.32 4.0306 13.78 4.34603 14.14 4.80165L18.78 10.532C19.14 10.9701 19.4 11.3731 19.58 11.7587C19.76 12.1267 19.86 12.4947 19.86 12.8276C19.86 13.2482 19.72 13.6688 19.44 14.0718C19.18 14.4749 18.8 14.8954 18.32 15.316L16.8 16.7004C16.58 16.8932 16.48 17.121 16.48 17.4014C16.48 17.5415 16.5 17.6642 16.54 17.8044C16.6 17.9446 16.66 18.0497 16.7 18.1549C17.06 18.7332 17.68 19.4867 18.56 20.3979C19.46 21.3092 20.42 22.238 21.46 23.1667C22.54 24.0955 23.58 24.9542 24.64 25.7427C25.68 26.5138 26.54 27.0395 27.22 27.3549C27.32 27.39 27.44 27.4426 27.58 27.4951C27.74 27.5477 27.9 27.5652 28.08 27.5652C28.42 27.5652 28.68 27.4601 28.9 27.2673L30.42 25.953C30.92 25.5149 31.4 25.182 31.86 24.9717C32.32 24.7264 32.78 24.6037 33.28 24.6037C33.66 24.6037 34.06 24.6738 34.5 24.8315C34.94 24.9892 35.4 25.217 35.9 25.5149L42.52 29.633C43.04 29.9485 43.4 30.3165 43.62 30.7546C43.82 31.1927 43.94 31.6308 43.94 32.1214Z" stroke="#484848" stroke-width="1.5" stroke-miterlimit="10"/>
  <path d="M37 15.772C37 14.7206 36.06 13.1084 34.66 11.7941C33.38 10.585 31.68 9.63867 30 9.63867" stroke="#339933" stroke-width="1.5" stroke-linecap="round" stroke-linejoin="round"/>
  <path d="M44 15.7716C44 8.98987 37.74 3.50488 30 3.50488" stroke="#339933" stroke-width="1.5" stroke-linecap="round" stroke-linejoin="round"/>
</svg>