<svg width="604" height="343" viewBox="0 0 604 343" fill="none" xmlns="http://www.w3.org/2000/svg">
<g clip-path="url(#clip0_408_64857)">
<path d="M481.994 134.36H604L584.127 148.684V176.861C584.127 180.111 581.49 182.745 578.236 182.745H481.994C478.741 182.745 476.104 180.111 476.104 176.861V140.244C476.104 136.994 478.741 134.36 481.994 134.36Z" fill="#F5F5F5"/>
<path d="M487.08 154.276C487.08 154.396 505.481 154.49 528.18 154.49C550.878 154.49 569.279 154.396 569.279 154.276C569.279 154.157 550.878 154.062 528.18 154.062C505.481 154.062 487.08 154.157 487.08 154.276Z" fill="#E0E0E0"/>
<path d="M487.08 165.095C487.08 165.214 505.481 165.308 528.18 165.308C550.878 165.308 569.279 165.214 569.279 165.095C569.279 164.975 550.878 164.881 528.18 164.881C505.481 164.881 487.08 164.975 487.08 165.095Z" fill="#E0E0E0"/>
<path d="M296.696 30.375H290.984V49.479H296.696V30.375Z" fill="#E0E0E0"/>
<path d="M249.003 27.6045H243.292V49.4706H249.003V27.6045Z" fill="#E0E0E0"/>
<path d="M260.922 23.0459H255.211V49.47H260.922V23.0459Z" fill="#E0E0E0"/>
<path d="M272.85 24.5H267.139V49.4789H272.85V24.5Z" fill="#E0E0E0"/>
<path d="M284.768 16.0508H279.057V49.4785H284.768V16.0508Z" fill="#E0E0E0"/>
<path d="M308.614 16.2139H302.903V49.4791H308.614V16.2139Z" fill="#E0E0E0"/>
<path d="M320.542 27.1338H314.831V49.4703H320.542V27.1338Z" fill="#E0E0E0"/>
<path d="M332.461 17.6758H326.75V49.4787H332.461V17.6758Z" fill="#E0E0E0"/>
<path d="M344.38 10.5098H338.669V49.4703H344.38V10.5098Z" fill="#E0E0E0"/>
<path d="M356.307 17.5137H350.596V49.4791H356.307V17.5137Z" fill="#E0E0E0"/>
<path d="M506.748 47.7082L553.97 40.4993C557.926 66.3676 539.868 90.9103 513.966 94.8611C488.065 98.8119 463.491 80.7768 459.535 54.9086C455.579 29.0404 473.637 4.4976 499.539 0.546812C503.666 -0.0859982 507.853 -0.171513 511.997 0.290267L506.757 47.7082H506.748Z" fill="#EBEBEB"/>
<path d="M522.066 0.435547L516.329 36.9931L552.257 30.2546C552.257 30.2546 546.974 9.76521 522.057 0.435547H522.066Z" fill="#E0E0E0"/>
<path d="M24.6173 136.378C24.4118 123.431 34.7466 112.725 47.6501 112.511C60.5622 112.306 71.231 122.67 71.4365 135.617C71.6419 148.564 61.3071 159.27 48.4036 159.484C35.4915 159.689 24.8228 149.325 24.6173 136.378ZM59.2179 135.822C59.1152 129.631 54.0205 124.671 47.8471 124.774C41.6736 124.876 36.7331 129.99 36.8358 136.181C36.9386 142.373 42.0332 147.332 48.2067 147.23C54.3802 147.127 59.3207 142.013 59.2179 135.822Z" fill="#F5F5F5"/>
<path d="M24.6173 136.378C24.4118 123.431 34.7466 112.725 47.6501 112.511L47.8471 124.765C41.6736 124.868 36.7331 129.981 36.8358 136.173C36.9386 142.364 42.0332 147.324 48.2067 147.221L48.4036 159.475C35.4915 159.681 24.8228 149.316 24.6173 136.369V136.378Z" fill="#E0E0E0"/>
<path d="M45.5439 110.63C60.648 110.39 72.6953 122.089 72.9351 137.242L58.6444 137.473C58.5245 130.23 53.0104 125.663 45.7923 125.783L45.5525 110.63H45.5439Z" fill="#EBEBEB"/>
<path d="M176.719 218.857H146.957V254.192H176.719V218.857Z" fill="#F5F5F5"/>
<path d="M147.984 216.549H13.4946V256.407H147.984V216.549Z" fill="#E0E0E0"/>
<path d="M177.619 219.901H144.379V216.549H177.619C178.543 216.549 179.297 217.301 179.297 218.225C179.297 219.148 178.543 219.901 177.619 219.901Z" fill="#E0E0E0"/>
<path d="M177.619 256.407H144.379V253.055H177.619C178.543 253.055 179.297 253.807 179.297 254.731C179.297 255.654 178.543 256.407 177.619 256.407Z" fill="#E0E0E0"/>
<path d="M137.409 216.549H121.518V256.407H137.409V216.549Z" fill="#EBEBEB"/>
<path d="M42.1784 216.993H26.2866V256.852H42.1784V216.993Z" fill="#EBEBEB"/>
<path d="M176.719 224.698C176.719 224.792 170.28 224.878 162.335 224.878C154.389 224.878 147.95 224.801 147.95 224.698C147.95 224.596 154.389 224.519 162.335 224.519C170.28 224.519 176.719 224.596 176.719 224.698Z" fill="#E0E0E0"/>
<path d="M176.719 230C176.719 230.094 170.28 230.179 162.335 230.179C154.389 230.179 147.95 230.103 147.95 230C147.95 229.897 154.389 229.82 162.335 229.82C170.28 229.82 176.719 229.897 176.719 230Z" fill="#E0E0E0"/>
<path d="M176.719 236.516C176.719 236.611 170.28 236.696 162.335 236.696C154.389 236.696 147.95 236.619 147.95 236.516C147.95 236.414 154.389 236.337 162.335 236.337C170.28 236.337 176.719 236.414 176.719 236.516Z" fill="#E0E0E0"/>
<path d="M176.719 243.041C176.719 243.135 170.28 243.221 162.335 243.221C154.389 243.221 147.95 243.144 147.95 243.041C147.95 242.938 154.389 242.861 162.335 242.861C170.28 242.861 176.719 242.938 176.719 243.041Z" fill="#E0E0E0"/>
<path d="M176.719 249.566C176.719 249.66 170.28 249.746 162.335 249.746C154.389 249.746 147.95 249.669 147.95 249.566C147.95 249.464 154.389 249.387 162.335 249.387C170.28 249.387 176.719 249.464 176.719 249.566Z" fill="#E0E0E0"/>
<path d="M112.973 232.934H52.4707V240.108H112.973V232.934Z" fill="#EBEBEB"/>
<path d="M176.42 257.194H146.203V278.727H176.42V257.194Z" fill="#FAFAFA"/>
<path d="M146.537 256.407H17.9468V279.496H146.537V256.407Z" fill="#F5F5F5"/>
<path d="M145.604 257.972H178.081C178.509 257.972 178.86 257.622 178.86 257.194C178.86 256.767 178.509 256.416 178.081 256.416H145.604V257.981V257.972Z" fill="#F5F5F5"/>
<path d="M145.604 277.939H178.5C178.697 277.939 178.86 278.102 178.86 278.299V279.145C178.86 279.342 178.697 279.504 178.5 279.504H145.604V277.939Z" fill="#F5F5F5"/>
<path d="M176.411 261.281C176.411 261.375 169.724 261.461 161.47 261.461C153.216 261.461 146.528 261.384 146.528 261.281C146.528 261.179 153.216 261.102 161.47 261.102C169.724 261.102 176.411 261.179 176.411 261.281Z" fill="#E0E0E0"/>
<path d="M176.411 265.352C176.411 265.446 169.724 265.532 161.47 265.532C153.216 265.532 146.528 265.455 146.528 265.352C146.528 265.25 153.216 265.173 161.47 265.173C169.724 265.173 176.411 265.25 176.411 265.352Z" fill="#E0E0E0"/>
<path d="M176.411 269.423C176.411 269.517 169.724 269.602 161.47 269.602C153.216 269.602 146.528 269.525 146.528 269.423C146.528 269.32 153.216 269.243 161.47 269.243C169.724 269.243 176.411 269.32 176.411 269.423Z" fill="#E0E0E0"/>
<path d="M176.411 273.502C176.411 273.596 169.724 273.681 161.47 273.681C153.216 273.681 146.528 273.604 146.528 273.502C146.528 273.399 153.216 273.322 161.47 273.322C169.724 273.322 176.411 273.399 176.411 273.502Z" fill="#E0E0E0"/>
<path d="M181.001 281.549H150.159V339.913H181.001V281.549Z" fill="#EBEBEB"/>
<path d="M150.159 279.496H5.39453V342.777H150.159V279.496Z" fill="#E0E0E0"/>
<path d="M183.407 342.778H146.194V338.673H183.407C184.545 338.673 185.461 339.588 185.461 340.725C185.461 341.863 184.545 342.778 183.407 342.778Z" fill="#E0E0E0"/>
<path d="M146.203 279.496H184.528C185.051 279.496 185.47 279.915 185.47 280.437V282.66C185.47 283.182 185.051 283.601 184.528 283.601H146.203V279.496Z" fill="#E0E0E0"/>
<path d="M181.001 289.373C181.001 289.467 174.1 289.553 165.58 289.553C157.06 289.553 150.159 289.476 150.159 289.373C150.159 289.27 157.06 289.193 165.58 289.193C174.1 289.193 181.001 289.27 181.001 289.373Z" fill="#E0E0E0"/>
<path d="M181.001 296.864C181.001 296.958 174.1 297.044 165.58 297.044C157.06 297.044 150.159 296.967 150.159 296.864C150.159 296.762 157.06 296.685 165.58 296.685C174.1 296.685 181.001 296.762 181.001 296.864Z" fill="#E0E0E0"/>
<path d="M181.001 304.347C181.001 304.441 174.1 304.526 165.58 304.526C157.06 304.526 150.159 304.449 150.159 304.347C150.159 304.244 157.06 304.167 165.58 304.167C174.1 304.167 181.001 304.244 181.001 304.347Z" fill="#E0E0E0"/>
<path d="M181.001 311.829C181.001 311.923 174.1 312.009 165.58 312.009C157.06 312.009 150.159 311.932 150.159 311.829C150.159 311.726 157.06 311.649 165.58 311.649C174.1 311.649 181.001 311.726 181.001 311.829Z" fill="#E0E0E0"/>
<path d="M181.001 319.311C181.001 319.405 174.1 319.491 165.58 319.491C157.06 319.491 150.159 319.414 150.159 319.311C150.159 319.209 157.06 319.132 165.58 319.132C174.1 319.132 181.001 319.209 181.001 319.311Z" fill="#E0E0E0"/>
<path d="M181.001 326.803C181.001 326.897 174.1 326.982 165.58 326.982C157.06 326.982 150.159 326.905 150.159 326.803C150.159 326.7 157.06 326.623 165.58 326.623C174.1 326.623 181.001 326.7 181.001 326.803Z" fill="#E0E0E0"/>
<path d="M181.001 334.285C181.001 334.379 174.1 334.465 165.58 334.465C157.06 334.465 150.159 334.388 150.159 334.285C150.159 334.182 157.06 334.105 165.58 334.105C174.1 334.105 181.001 334.182 181.001 334.285Z" fill="#E0E0E0"/>
<path d="M54.9282 314.6V318.123C54.9282 322.365 52.8047 324.785 48.7119 324.785C44.6191 324.785 42.4956 322.365 42.4956 318.123V304.338C42.4956 300.097 44.6191 297.677 48.7119 297.677C52.8047 297.677 54.9282 300.097 54.9282 304.338V306.912H50.9895V304.073C50.9895 302.183 50.1589 301.465 48.8318 301.465C47.5046 301.465 46.6741 302.183 46.6741 304.073V318.388C46.6741 320.278 47.5046 320.962 48.8318 320.962C50.1589 320.962 50.9895 320.278 50.9895 318.388V314.6H54.9282Z" fill="#EBEBEB"/>
<path d="M57.1289 304.338C57.1289 300.097 59.3637 297.677 63.4565 297.677C67.5493 297.677 69.7841 300.097 69.7841 304.338V318.123C69.7841 322.365 67.5493 324.785 63.4565 324.785C59.3637 324.785 57.1289 322.365 57.1289 318.123V304.338ZM61.2988 318.388C61.2988 320.278 62.1293 320.997 63.4565 320.997C64.7837 320.997 65.6142 320.278 65.6142 318.388V304.073C65.6142 302.183 64.7837 301.465 63.4565 301.465C62.1293 301.465 61.2988 302.183 61.2988 304.073V318.388Z" fill="#EBEBEB"/>
<path d="M72.4727 297.984H76.6425V320.697H83.501V324.485H72.4727V297.984Z" fill="#EBEBEB"/>
<path d="M84.9824 304.338C84.9824 300.097 87.2172 297.677 91.31 297.677C95.4029 297.677 97.6376 300.097 97.6376 304.338V318.123C97.6376 322.365 95.4029 324.785 91.31 324.785C87.2172 324.785 84.9824 322.365 84.9824 318.123V304.338ZM89.1523 318.388C89.1523 320.278 89.9829 320.997 91.31 320.997C92.6372 320.997 93.4678 320.278 93.4678 318.388V304.073C93.4678 302.183 92.6372 301.465 91.31 301.465C89.9829 301.465 89.1523 302.183 89.1523 304.073V318.388Z" fill="#EBEBEB"/>
<path d="M104.307 297.984V318.431C104.307 320.321 105.138 321.005 106.465 321.005C107.792 321.005 108.623 320.321 108.623 318.431V297.984H112.562V318.166C112.562 322.407 110.438 324.827 106.345 324.827C102.252 324.827 100.129 322.407 100.129 318.166V297.984H104.299H104.307Z" fill="#EBEBEB"/>
<path d="M124.13 324.485C123.898 323.801 123.753 323.391 123.753 321.227V317.063C123.753 314.6 122.922 313.693 121.021 313.693H119.583V324.485H115.413V297.984H121.706C126.03 297.984 127.889 299.994 127.889 304.082V306.16C127.889 308.888 127.015 310.666 125.157 311.538C127.246 312.411 127.923 314.412 127.923 317.182V321.27C127.923 322.561 127.957 323.502 128.377 324.485H124.13ZM119.583 301.773V309.914H121.21C122.768 309.914 123.71 309.23 123.71 307.109V304.501C123.71 302.611 123.068 301.773 121.587 301.773H119.574H119.583Z" fill="#EBEBEB"/>
<path d="M54.0289 265.506H50.9893L51.1519 264.72H58.1303L57.9591 265.506H54.928L53.361 273.323H52.462L54.0289 265.506Z" fill="#E0E0E0"/>
<path d="M63.9783 266.857L59.2518 274.16C58.4555 275.392 57.8476 275.768 56.9143 275.768C56.3149 275.768 55.6984 275.563 55.373 275.187L55.844 274.545C56.1265 274.836 56.4947 275.016 56.9913 275.016C57.5479 275.016 57.976 274.759 58.4812 273.972L58.935 273.288L57.3253 266.857H58.2072L59.5515 272.365L63.0878 266.857H63.9868H63.9783Z" fill="#E0E0E0"/>
<path d="M71.1794 269.534C71.1794 271.757 69.6296 273.382 67.5147 273.382C66.2817 273.382 65.4254 272.877 65.0487 271.971L64.3123 275.708H63.439L65.2028 266.857H66.0419L65.8364 267.892C66.4529 267.208 67.3177 266.814 68.3623 266.814C70.0234 266.814 71.1965 267.849 71.1965 269.542L71.1794 269.534ZM70.2974 269.585C70.2974 268.32 69.5183 267.567 68.1654 267.567C66.5557 267.567 65.3741 268.833 65.3741 270.603C65.3741 271.868 66.1532 272.604 67.5061 272.604C69.1158 272.604 70.2974 271.338 70.2974 269.577V269.585Z" fill="#E0E0E0"/>
<path d="M72.1982 270.646C72.1982 268.448 73.7652 266.814 75.94 266.814C77.7381 266.814 78.8855 267.875 78.8855 269.542C78.8855 271.757 77.3186 273.391 75.1437 273.391C73.3456 273.391 72.1982 272.313 72.1982 270.654V270.646ZM78.0121 269.585C78.0121 268.32 77.2329 267.567 75.8801 267.567C74.2703 267.567 73.0716 268.841 73.0716 270.603C73.0716 271.868 73.8508 272.604 75.2036 272.604C76.8134 272.604 78.0121 271.338 78.0121 269.577V269.585Z" fill="#E0E0E0"/>
<path d="M87.2595 266.858L86.1293 272.536C85.6755 274.819 84.4682 275.769 82.3618 275.769C81.146 275.769 80.1442 275.427 79.4849 274.794L79.9986 274.127C80.5123 274.657 81.3857 274.99 82.4218 274.99C84.0572 274.99 84.922 274.238 85.2302 272.682L85.3758 271.963C84.7593 272.656 83.8859 273.075 82.7899 273.075C81.0775 273.075 79.9301 272.083 79.9301 270.467C79.9301 268.389 81.4713 266.807 83.6205 266.807C84.8107 266.807 85.7782 267.294 86.1464 268.277L86.4204 266.849H87.2595V266.858ZM85.7868 269.449C85.7868 268.269 84.9905 267.568 83.6462 267.568C82.0108 267.568 80.8292 268.773 80.8292 270.415C80.8292 271.595 81.6169 272.297 82.9698 272.297C84.5966 272.297 85.7868 271.091 85.7868 269.44V269.449Z" fill="#E0E0E0"/>
<path d="M92.9707 266.806L92.808 267.653C92.7224 267.653 92.6625 267.636 92.5597 267.636C91.1812 267.636 90.2564 268.423 89.9396 270.03L89.2889 273.314H88.4155L89.6999 266.849H90.539L90.3164 268.029C90.8986 267.183 91.7463 266.798 92.9793 266.798L92.9707 266.806Z" fill="#E0E0E0"/>
<path d="M100.386 266.857L99.0928 273.322H98.2536L98.4591 272.304C97.8427 272.98 96.9864 273.382 95.9332 273.382C94.2721 273.382 93.1162 272.347 93.1162 270.646C93.1162 268.431 94.666 266.814 96.7724 266.814C98.0053 266.814 98.8616 267.319 99.2298 268.217L99.5038 266.866H100.377L100.386 266.857ZM98.9301 269.585C98.9301 268.32 98.1509 267.567 96.798 267.567C95.1883 267.567 93.9896 268.841 93.9896 270.603C93.9896 271.868 94.7688 272.604 96.1216 272.604C97.7313 272.604 98.9301 271.338 98.9301 269.577V269.585Z" fill="#E0E0E0"/>
<path d="M108.794 269.534C108.794 271.757 107.244 273.382 105.129 273.382C103.896 273.382 103.04 272.877 102.663 271.971L101.927 275.708H101.054L102.818 266.857H103.657L103.451 267.892C104.068 267.208 104.932 266.814 105.977 266.814C107.638 266.814 108.811 267.849 108.811 269.542L108.794 269.534ZM107.912 269.585C107.912 268.32 107.133 267.567 105.78 267.567C104.17 267.567 102.989 268.833 102.989 270.603C102.989 271.868 103.768 272.604 105.121 272.604C106.731 272.604 107.912 271.338 107.912 269.577V269.585Z" fill="#E0E0E0"/>
<path d="M116.629 268.91C116.629 269.141 116.603 269.389 116.552 269.645L115.815 273.322H114.942L115.678 269.637C115.713 269.432 115.738 269.235 115.738 269.047C115.738 268.123 115.182 267.593 114.069 267.593C112.69 267.593 111.74 268.345 111.431 269.851L110.746 273.314H109.873L111.697 264.189H112.57L111.842 267.815C112.459 267.114 113.324 266.798 114.317 266.798C115.781 266.798 116.629 267.584 116.629 268.901V268.91Z" fill="#E0E0E0"/>
<path d="M124.814 266.857L120.088 274.16C119.291 275.392 118.684 275.768 117.75 275.768C117.151 275.768 116.534 275.563 116.209 275.187L116.68 274.545C116.962 274.836 117.331 275.016 117.827 275.016C118.384 275.016 118.812 274.759 119.317 273.972L119.771 273.288L118.161 266.857H119.043L120.387 272.365L123.924 266.857H124.823H124.814Z" fill="#E0E0E0"/>
<path d="M144.32 1.09449H12.981L34.3784 16.5128V46.8449C34.3784 50.3425 37.2211 53.1816 40.7231 53.1816H144.32C147.822 53.1816 150.664 50.3425 150.664 46.8449V7.42259C150.664 3.92503 147.822 1.08594 144.32 1.08594V1.09449Z" fill="#F5F5F5"/>
<path d="M138.84 22.5326C138.84 22.6609 119.035 22.7635 94.5979 22.7635C70.1608 22.7635 50.356 22.6609 50.356 22.5326C50.356 22.4044 70.1608 22.3018 94.5979 22.3018C119.035 22.3018 138.84 22.4044 138.84 22.5326Z" fill="#E0E0E0"/>
<path d="M138.84 34.1801C138.84 34.3084 119.035 34.411 94.5979 34.411C70.1608 34.411 50.356 34.3084 50.356 34.1801C50.356 34.0518 70.1608 33.9492 94.5979 33.9492C119.035 33.9492 138.84 34.0518 138.84 34.1801Z" fill="#E0E0E0"/>
<path d="M599.822 342.778C599.822 342.898 465.538 343 299.924 343C134.31 343 0 342.898 0 342.778C0 342.658 134.258 342.556 299.924 342.556C465.589 342.556 599.822 342.658 599.822 342.778Z" fill="#263238"/>
<path d="M543.473 299.131C543.473 299.131 520.774 273.04 512.212 246.95C503.649 220.859 507.716 223.852 507.716 223.852C507.716 223.852 519.275 249.199 528.06 261.436C536.837 273.682 552.472 291.64 552.472 291.64L543.481 299.122L543.473 299.131Z" fill="#008000"/>
<path d="M547.994 227.922C547.257 226.648 545.314 227.307 545.536 228.76C546.923 237.928 549.912 259.426 549.792 273.382C549.638 291.503 549.792 298.506 549.792 298.506H559.236C559.236 298.506 557.558 261.051 555.426 249.626C553.927 241.622 550.751 232.728 547.985 227.922H547.994Z" fill="#008000"/>
<path d="M553.14 295.462C553.14 295.462 559.082 282.977 560.914 267.294C561.693 260.624 560.306 251.61 558.243 239.578C557.241 233.755 557.018 229.317 557.053 226.247C557.078 223.921 560.144 223.168 561.282 225.195C562.421 227.23 565.726 234.165 566.557 238.518C568.843 250.396 571.437 256.331 569.451 267.602C567.473 278.872 560.152 296.223 560.152 296.223L553.14 295.462Z" fill="#008000"/>
<path d="M561.651 296.223C561.651 296.223 586.568 242.734 588.297 234.806C590.027 226.871 595.901 208.588 596.586 209.622C597.279 210.657 598.315 220.32 593.82 231.36C589.333 242.4 570.154 297.856 570.154 297.856H561.643" fill="#008000"/>
<path d="M550.416 293.829C550.416 293.829 550.168 293.675 549.714 293.35C549.269 293.016 548.601 292.546 547.788 291.879C546.127 290.579 543.798 288.595 541.092 285.979C535.655 280.762 528.882 272.715 523.017 262.804C517.134 252.893 513.179 243.204 510.678 236.106C509.428 232.557 508.512 229.65 507.921 227.623C507.613 226.614 507.408 225.827 507.262 225.289C507.116 224.75 507.048 224.468 507.065 224.468C507.082 224.468 507.185 224.733 507.365 225.263C507.553 225.836 507.801 226.606 508.118 227.563C508.769 229.564 509.737 232.446 511.038 235.978C513.624 243.025 517.622 252.662 523.479 262.53C529.327 272.399 536.015 280.446 541.366 285.705C544.029 288.356 546.315 290.366 547.933 291.717C548.73 292.409 549.38 292.905 549.8 293.264C550.228 293.624 550.442 293.812 550.434 293.829H550.416Z" fill="#008000"/>
<path d="M553.14 268.166C553.14 268.166 553.029 267.61 552.917 266.592C552.797 265.481 552.643 264.044 552.455 262.308C552.061 258.691 551.445 253.697 550.563 248.215C549.681 242.734 548.696 237.799 547.934 234.242C547.566 232.532 547.258 231.112 547.026 230.026C546.812 229.034 546.71 228.478 546.744 228.47C546.778 228.461 546.949 229 547.223 229.983C547.506 230.967 547.874 232.395 548.302 234.165C549.158 237.705 550.203 242.64 551.085 248.138C551.967 253.637 552.523 258.639 552.823 262.274C552.977 264.087 553.071 265.566 553.114 266.584C553.157 267.601 553.166 268.166 553.131 268.166H553.14Z" fill="#008000"/>
<path d="M558.979 224.767C558.979 224.767 559.099 224.998 559.27 225.443C559.459 225.947 559.707 226.606 560.015 227.427C560.349 228.291 560.726 229.351 561.086 230.608C561.454 231.865 561.933 233.276 562.293 234.892C562.49 235.696 562.695 236.534 562.909 237.406C563.115 238.279 563.269 239.211 563.457 240.16C563.868 242.058 564.117 244.119 564.416 246.283C564.904 250.618 565.17 255.416 565.007 260.461C564.802 265.498 564.194 270.27 563.397 274.563C562.944 276.701 562.541 278.736 562.002 280.6C561.745 281.532 561.531 282.447 561.257 283.311C560.983 284.166 560.717 284.987 560.461 285.774C559.981 287.356 559.407 288.732 558.945 289.955C558.491 291.187 558.037 292.221 557.652 293.051C557.284 293.846 556.993 294.488 556.762 294.975C556.556 295.411 556.436 295.642 556.419 295.633C556.402 295.633 556.488 295.386 556.667 294.932C556.864 294.436 557.13 293.778 557.464 292.965C557.823 292.119 558.251 291.076 558.671 289.844C559.099 288.613 559.656 287.227 560.11 285.645C560.349 284.859 560.606 284.038 560.872 283.183C561.128 282.327 561.334 281.412 561.582 280.48C562.105 278.616 562.481 276.589 562.927 274.469C563.689 270.193 564.288 265.447 564.485 260.444C564.639 255.433 564.391 250.661 563.937 246.343C563.646 244.188 563.415 242.144 563.029 240.246C562.849 239.296 562.712 238.373 562.516 237.501C562.31 236.628 562.122 235.79 561.933 234.986C561.599 233.379 561.146 231.959 560.803 230.702C560.469 229.436 560.118 228.368 559.827 227.495C559.553 226.657 559.339 225.99 559.176 225.477C559.031 225.015 558.962 224.767 558.979 224.759V224.767Z" fill="#008000"/>
<path d="M596.303 210.691C596.303 210.691 596.303 210.777 596.286 210.931C596.26 211.119 596.217 211.35 596.174 211.624C596.063 212.231 595.926 213.137 595.686 214.283C595.207 216.583 594.402 219.893 593.16 223.912C591.919 227.931 590.215 232.643 588.194 237.817C586.182 242.999 583.845 248.634 581.635 254.637C579.392 260.632 577.663 266.481 576.036 271.792C574.426 277.102 572.893 281.874 571.421 285.816C569.956 289.758 568.552 292.863 567.482 294.966C566.968 296.027 566.514 296.813 566.215 297.361C566.078 297.609 565.958 297.805 565.864 297.976C565.786 298.113 565.735 298.182 565.727 298.173C565.727 298.173 565.752 298.096 565.812 297.951C565.898 297.78 565.992 297.566 566.112 297.318C566.377 296.762 566.805 295.958 567.285 294.881C568.287 292.76 569.64 289.647 571.052 285.696C572.482 281.754 573.972 276.982 575.556 271.663C577.157 266.353 578.878 260.478 581.13 254.466C583.348 248.446 585.703 242.811 587.732 237.646C589.77 232.489 591.508 227.803 592.792 223.809C594.085 219.816 594.933 216.532 595.481 214.249C595.755 213.111 595.926 212.214 596.072 211.615C596.14 211.341 596.192 211.119 596.234 210.931C596.277 210.777 596.294 210.7 596.311 210.7L596.303 210.691Z" fill="#008000"/>
<path d="M519.464 198.873C517.897 197.317 515.285 198.941 515.936 201.062C516.595 203.209 517.597 205.979 519.07 209.101C522.495 216.369 532.556 242.46 537.274 256.792C541.983 271.116 548.619 297.848 548.619 297.848L558.68 296.215C558.68 296.215 549.475 252.294 540.484 236.465C533.258 223.749 526.031 205.372 519.472 198.864L519.464 198.873Z" fill="#008000"/>
<path d="M540.013 265.755C540.013 265.755 540.227 266.174 540.535 266.96C540.835 267.747 541.238 268.902 541.691 270.33C542.616 273.194 543.755 277.197 544.894 281.643C546.033 286.09 546.983 290.135 547.642 293.077C547.942 294.462 548.199 295.634 548.396 296.557C548.567 297.378 548.635 297.84 548.601 297.848C548.567 297.857 548.421 297.412 548.19 296.6C547.942 295.685 547.634 294.53 547.266 293.162C546.495 290.143 545.485 286.167 544.363 281.772C543.224 277.333 542.145 273.323 541.315 270.432C540.921 269.073 540.587 267.927 540.321 267.012C540.082 266.208 539.962 265.755 539.996 265.746L540.013 265.755Z" fill="#008000"/>
<path d="M553.662 297.036C553.662 297.036 553.636 296.942 553.602 296.771C553.567 296.565 553.533 296.3 553.49 295.975C553.388 295.283 553.293 294.248 553.079 292.931C552.711 290.289 552.052 286.492 550.973 281.848C549.903 277.205 548.336 271.749 546.264 265.797C544.2 259.845 541.614 253.415 538.677 246.761C532.761 233.464 526.844 221.671 522.965 212.949C521.005 208.596 519.481 205.047 518.479 202.576C517.965 201.345 517.605 200.37 517.349 199.72C517.237 199.412 517.143 199.172 517.066 198.967C517.006 198.796 516.98 198.711 516.989 198.702C516.997 198.702 517.04 198.779 517.117 198.942C517.203 199.138 517.314 199.378 517.443 199.668C517.742 200.353 518.145 201.293 518.667 202.49C519.729 204.936 521.296 208.459 523.299 212.786C527.272 221.458 533.232 233.224 539.157 246.539C542.094 253.209 544.671 259.657 546.718 265.635C548.764 271.612 550.297 277.094 551.333 281.763C552.369 286.423 552.977 290.246 553.276 292.905C553.456 294.231 553.516 295.266 553.593 295.967C553.619 296.292 553.636 296.557 553.653 296.762C553.662 296.942 553.662 297.036 553.653 297.036H553.662Z" fill="#008000"/>
<path d="M558.671 296.223C558.671 296.223 558.517 295.625 558.329 294.539C558.132 293.359 557.867 291.802 557.55 289.921C556.856 286.03 555.795 280.668 554.279 274.836C552.772 268.996 551.077 263.796 549.767 260.068C549.124 258.272 548.594 256.784 548.191 255.655C547.814 254.612 547.626 254.03 547.66 254.022C547.694 254.005 547.951 254.561 548.388 255.587C548.825 256.604 549.424 258.092 550.126 259.948C551.522 263.651 553.286 268.85 554.801 274.708C556.325 280.566 557.327 285.953 557.927 289.87C558.209 291.828 558.432 293.419 558.543 294.522C558.663 295.625 558.714 296.232 558.68 296.241L558.671 296.223Z" fill="#008000"/>
<path d="M579.315 294.778H540.048V342.555H579.315V294.778Z" fill="#FF725E"/>
<g opacity="0.3">
<path d="M579.315 294.778H540.048V342.555H579.315V294.778Z" fill="black"/>
</g>
<path d="M566.788 294.778H531.956V342.555H566.788V294.778Z" fill="#FF725E"/>
<path d="M56.3323 278.163C49.6451 273.887 40.372 273.801 33.8646 278.351C27.6825 282.669 24.5487 290.52 24.8227 298.045C25.0967 305.57 28.7443 314.763 35.5771 318.722L55.6131 318.645C62.0092 313.942 66.3418 306.374 66.6414 298.447C66.9411 290.52 63.0281 282.447 56.3409 278.171L56.3323 278.163Z" fill="#008000"/>
<path d="M46.4682 319.44C46.4254 319.44 46.3826 318.825 46.3398 317.722C46.3055 316.49 46.2627 314.917 46.2028 313.027C46.1 309.067 45.9459 303.595 45.6805 297.549C45.415 291.503 45.0897 286.038 44.8414 282.088C44.73 280.206 44.6359 278.633 44.5588 277.401C44.4989 276.29 44.4903 275.682 44.5331 275.674C44.5759 275.665 44.6701 276.281 44.8071 277.376C44.9441 278.479 45.1068 280.078 45.2866 282.053C45.6462 286.004 46.0487 291.477 46.3141 297.523C46.5795 303.569 46.6651 309.05 46.648 313.018C46.648 315.002 46.6138 316.61 46.5795 317.713C46.5453 318.825 46.5025 319.432 46.4596 319.432L46.4682 319.44Z" fill="white"/>
<path d="M26.843 296.335C26.8259 296.515 25.7385 296.566 24.4113 296.455C23.0841 296.344 22.0138 296.113 22.031 295.942C22.0481 295.762 23.1355 295.711 24.4627 295.822C25.7899 295.933 26.8602 296.164 26.843 296.335Z" fill="white"/>
<path d="M27.2112 289.588C27.1427 289.751 26.2009 289.494 25.1135 289.007C24.026 288.528 23.204 288.006 23.2725 287.844C23.341 287.681 24.2829 287.938 25.3703 288.425C26.4578 288.904 27.2797 289.426 27.2112 289.588Z" fill="white"/>
<path d="M30.6961 284.577C30.6019 284.722 29.5487 284.226 28.4527 283.32C27.3567 282.413 26.6632 281.473 26.7916 281.353C26.9201 281.233 27.7934 281.952 28.8552 282.824C29.9169 283.705 30.7903 284.423 30.6961 284.577Z" fill="white"/>
<path d="M34.1896 279.847C34.0269 279.916 33.5217 279.129 33.0594 278.086C32.597 277.043 32.3487 276.136 32.5114 276.068C32.6741 275.999 33.1792 276.786 33.6416 277.829C34.104 278.873 34.3523 279.779 34.1896 279.847Z" fill="white"/>
<path d="M39.6783 276.487C39.5242 276.564 38.9762 275.717 38.6165 274.554C38.2484 273.391 38.2227 272.391 38.3939 272.356C38.5737 272.322 38.8734 273.237 39.2245 274.357C39.5755 275.478 39.841 276.401 39.6783 276.478V276.487Z" fill="white"/>
<path d="M48.8399 272.707C49.0026 272.767 48.9084 273.485 48.6088 274.306C48.3176 275.136 47.9409 275.751 47.7782 275.7C47.6155 275.64 47.7097 274.922 48.0094 274.101C48.3005 273.271 48.6773 272.656 48.8399 272.707Z" fill="white"/>
<path d="M55.6384 275.623C55.7583 275.752 55.3216 276.35 54.6623 276.957C54.003 277.564 53.378 277.949 53.2581 277.821C53.1382 277.693 53.5749 277.094 54.2342 276.487C54.8935 275.88 55.5186 275.495 55.6384 275.623Z" fill="white"/>
<path d="M61.615 279.48C61.7177 279.625 61.1783 280.155 60.4248 280.668C59.6713 281.182 58.9778 281.472 58.875 281.327C58.7723 281.182 59.3031 280.651 60.0652 280.138C60.8187 279.625 61.5122 279.334 61.615 279.48Z" fill="white"/>
<path d="M65.8619 285.227C65.9304 285.389 65.0913 285.902 63.9868 286.372C62.8822 286.843 61.9318 287.091 61.8633 286.928C61.7948 286.766 62.6339 286.253 63.7299 285.782C64.8344 285.312 65.7849 285.064 65.8534 285.227H65.8619Z" fill="white"/>
<path d="M67.5319 291.503C67.5575 291.674 66.7013 291.931 65.631 292.059C64.5607 292.196 63.6702 292.153 63.6531 291.982C63.636 291.811 64.4836 291.554 65.5539 291.426C66.6242 291.289 67.5147 291.332 67.5319 291.503Z" fill="white"/>
<path d="M68.405 299.225C68.3365 299.387 67.4289 299.148 66.3757 298.695C65.3225 298.241 64.5348 297.737 64.6033 297.574C64.6718 297.412 65.5794 297.651 66.6326 298.105C67.6857 298.558 68.4735 299.062 68.405 299.225Z" fill="white"/>
<path d="M67.6431 305.852C67.5832 306.015 66.4358 305.741 65.2371 304.955C64.0298 304.176 63.3191 303.236 63.4475 303.116C63.576 302.988 64.4493 303.68 65.5881 304.416C66.7184 305.16 67.703 305.681 67.6431 305.852Z" fill="white"/>
<path d="M64.1839 311.882C64.0811 312.019 63.165 311.48 62.2916 310.539C61.4097 309.599 60.9473 308.649 61.0843 308.555C61.2299 308.453 61.9149 309.205 62.754 310.112C63.5931 311.018 64.2952 311.754 64.1839 311.89V311.882Z" fill="white"/>
<path d="M31.3811 312.591C31.4667 312.745 30.4992 313.404 29.2405 314.062C27.9732 314.721 26.8858 315.123 26.8002 314.969C26.7146 314.815 27.6821 314.156 28.9408 313.498C30.208 312.839 31.2955 312.437 31.3811 312.591Z" fill="white"/>
<path d="M28.3842 307.135C28.4613 307.297 27.6907 307.802 26.6632 308.264C25.6442 308.725 24.7538 308.973 24.6767 308.811C24.5996 308.648 25.3703 308.144 26.3977 307.682C27.4167 307.22 28.3072 306.972 28.3842 307.135Z" fill="white"/>
<path d="M26.1839 302.304C26.2096 302.475 25.2592 302.757 24.069 302.928C22.8788 303.099 21.8856 303.09 21.8599 302.919C21.8342 302.748 22.7846 302.466 23.9748 302.295C25.165 302.124 26.1582 302.133 26.1839 302.304Z" fill="white"/>
<path d="M33.4105 299.636C33.4619 299.798 32.5371 300.234 31.3041 300.371C30.0712 300.516 29.0779 300.294 29.0865 300.123C29.095 299.944 30.0626 299.867 31.2271 299.73C32.3916 299.601 33.3506 299.456 33.4019 299.636H33.4105Z" fill="white"/>
<path d="M39.4126 293.675C39.4639 293.837 38.7276 294.214 37.7343 294.308C36.7411 294.41 35.9534 294.188 35.9705 294.017C35.9876 293.837 36.7497 293.769 37.6744 293.675C38.5991 293.589 39.3612 293.504 39.4126 293.675Z" fill="white"/>
<path d="M40.56 288.895C40.5 289.057 39.7037 288.938 38.779 288.621C37.8542 288.305 37.1521 287.911 37.2121 287.74C37.272 287.578 38.0683 287.698 38.993 288.014C39.9178 288.33 40.6199 288.724 40.56 288.895Z" fill="white"/>
<path d="M42.7605 284.063C42.6406 284.183 42.0926 283.824 41.6988 283.148C41.3049 282.472 41.2707 281.822 41.4333 281.771C41.6046 281.72 41.9043 282.224 42.2468 282.823C42.5893 283.422 42.8804 283.935 42.7519 284.054L42.7605 284.063Z" fill="white"/>
<path d="M40.1061 303.843C40.149 304.014 39.4554 304.331 38.5649 304.545C38.0512 304.673 37.5802 304.733 37.272 304.733L37.1436 304.356C37.3747 304.314 37.5203 304.322 37.5545 304.391C37.5802 304.459 37.4946 304.579 37.3062 304.716L37.1778 304.339C37.4518 304.194 37.897 304.04 38.4108 303.912C39.3013 303.698 40.0633 303.655 40.1061 303.826V303.843Z" fill="white"/>
<path d="M41.3394 312.318C41.4079 312.48 40.526 312.985 39.3786 313.429C38.2312 313.882 37.2466 314.113 37.1781 313.951C37.1096 313.788 37.9915 313.292 39.1388 312.839C40.2862 312.386 41.2709 312.155 41.3394 312.318Z" fill="white"/>
<path d="M34.5666 308.555C34.6265 308.726 34.0357 309.068 33.2565 309.333C32.4774 309.598 31.8009 309.675 31.741 309.512C31.6811 309.341 32.2719 308.999 33.051 308.734C33.8302 308.469 34.5067 308.392 34.5666 308.555Z" fill="white"/>
<path d="M35.08 291.315C35.0372 291.486 34.0183 291.383 32.8367 290.964C31.6551 290.545 30.7988 289.981 30.8759 289.827C30.953 289.665 31.9034 289.955 33.0508 290.357C34.1981 290.768 35.1229 291.135 35.08 291.307V291.315Z" fill="white"/>
<path d="M51.4856 289.433C51.5797 289.579 51.0061 290.135 50.2012 290.665C49.3963 291.195 48.66 291.503 48.5658 291.358C48.4716 291.212 49.0453 290.665 49.8501 290.126C50.655 289.596 51.3914 289.288 51.4856 289.433Z" fill="white"/>
<path d="M52.3761 297.942C52.4103 298.113 51.811 298.387 51.0232 298.55C50.244 298.712 49.5847 298.703 49.5419 298.532C49.5077 298.361 50.107 298.088 50.8948 297.925C51.674 297.763 52.3333 297.771 52.3761 297.942Z" fill="white"/>
<path d="M53.4123 307.503C53.3352 307.666 52.4704 307.418 51.4686 306.956C50.4668 306.494 49.7219 305.99 49.7989 305.827C49.876 305.665 50.7408 305.913 51.7426 306.375C52.7444 306.836 53.4893 307.341 53.4123 307.503Z" fill="white"/>
<path d="M51.2203 316.815C51.0833 316.926 50.5182 316.465 49.9616 315.789C49.4051 315.105 49.0626 314.464 49.191 314.352C49.328 314.241 49.8931 314.703 50.4497 315.379C51.0063 316.063 51.3487 316.704 51.2203 316.815Z" fill="white"/>
<path d="M50.7749 283.174C50.8862 283.311 50.5095 283.781 49.8673 284.097C49.2251 284.422 48.6258 284.439 48.5829 284.268C48.5316 284.097 49.0025 283.815 49.5762 283.524C50.1499 283.234 50.655 283.029 50.7664 283.174H50.7749Z" fill="white"/>
<path d="M58.8151 291.751C58.8751 291.913 58.1302 292.324 57.1112 292.461C56.0923 292.606 55.2703 292.409 55.2789 292.238C55.2874 292.059 56.0752 291.956 57.0256 291.828C57.976 291.7 58.7552 291.58 58.8151 291.751Z" fill="white"/>
<path d="M57.2054 284.054C57.2825 284.208 56.5461 284.739 55.4929 285.072C54.4397 285.406 53.5321 285.406 53.5065 285.235C53.4808 285.055 54.2942 284.781 55.296 284.465C56.2978 284.149 57.1198 283.901 57.1968 284.063L57.2054 284.054Z" fill="white"/>
<path d="M60.5706 303.68C60.5706 303.851 59.3034 303.962 57.7793 303.68C56.2552 303.407 55.1078 302.859 55.1678 302.697C55.2277 302.526 56.4179 302.791 57.8906 303.047C59.3633 303.321 60.5706 303.492 60.5621 303.672L60.5706 303.68Z" fill="white"/>
<path d="M57.5823 314.866C57.4795 315.002 56.5462 314.455 55.6215 313.523C54.6882 312.591 54.1488 311.659 54.2858 311.556C54.4313 311.445 55.1762 312.172 56.0753 313.07C56.9744 313.976 57.6936 314.72 57.5823 314.866Z" fill="white"/>
<path d="M44.4477 274.947C44.5419 275.084 41.8961 276.153 38.8393 279.377C35.7826 282.524 32.6316 288.082 31.8524 294.795C31.4842 298.13 31.801 301.363 32.272 304.245C32.7686 307.127 33.4365 309.692 34.0444 311.83C34.6609 313.968 35.226 315.678 35.6027 316.858C35.9795 318.047 36.185 318.705 36.1422 318.722C36.0994 318.739 35.8254 318.107 35.3716 316.944C34.9178 315.781 34.2927 314.087 33.6163 311.958C32.9484 309.829 32.2377 307.263 31.6983 304.347C31.1845 301.44 30.842 298.156 31.2188 294.727C32.0151 287.86 35.3116 282.199 38.514 279.069C40.1066 277.479 41.605 276.418 42.701 275.802C43.2318 275.469 43.6856 275.289 43.9853 275.135C44.285 274.999 44.4477 274.93 44.4563 274.956L44.4477 274.947Z" fill="white"/>
<path d="M53.1641 319.124C53.0271 319.056 54.6026 316.627 56.0411 312.266C57.5224 307.947 58.7468 301.559 57.7621 294.624C57.2998 291.161 56.298 287.954 55.0393 285.218C53.7292 282.515 52.0425 280.3 50.3985 278.753C48.6946 277.248 47.0163 276.384 45.8433 275.879C44.6617 275.383 43.951 275.272 43.9595 275.221C43.9595 275.204 44.1394 275.212 44.4819 275.264C44.8158 275.324 45.3124 275.435 45.9289 275.657C47.1533 276.102 48.8829 276.914 50.6896 278.419C52.4449 279.984 54.1831 282.19 55.5702 284.97C56.8888 287.757 57.9248 291.015 58.3957 294.539C59.3975 301.611 58.0789 308.093 56.4692 312.42C56.1096 313.523 55.6387 314.472 55.2962 315.319C54.8852 316.14 54.5427 316.858 54.2344 317.422C53.5837 318.543 53.2069 319.15 53.1727 319.124H53.1641Z" fill="white"/>
<path d="M28.3843 317.619H63.6528L63.8668 324.666H28.3843V317.619Z" fill="#FF725E"/>
<path d="M31.3813 321.143L33.4106 342.658H59.192L61.2556 321.373L31.3813 321.143Z" fill="#FF725E"/>
<path d="M63.8668 324.751C63.8668 324.931 55.9295 325.067 46.1341 325.067C36.3387 325.067 28.4014 324.922 28.4014 324.751C28.4014 324.58 36.3387 324.435 46.1341 324.435C55.9295 324.435 63.8668 324.58 63.8668 324.751Z" fill="#263238"/>
<path d="M60.2792 331.302C60.2792 331.302 60.0737 331.815 59.5257 332.645C58.9692 333.466 58.0958 334.629 56.7943 335.869L56.6317 336.023L56.469 335.852C54.7736 334.073 52.4361 331.892 49.5591 329.814L49.953 329.797C48.9683 330.661 47.9408 331.559 46.8877 332.482C45.6375 333.568 44.4217 334.629 43.2658 335.629L43.0688 335.8L42.8719 335.629C40.6799 333.782 38.6763 332.106 36.981 330.686L37.3235 330.652C36.1076 332.132 35.0887 333.38 34.2752 334.364C33.5389 335.236 33.1193 335.698 33.0765 335.672C33.0423 335.646 33.3933 335.116 34.0612 334.201C34.8232 333.184 35.7908 331.892 36.9381 330.362L37.0837 330.165L37.2806 330.327C39.0017 331.721 41.031 333.363 43.2572 335.167H42.8548C44.0107 334.158 45.218 333.098 46.4595 332.012C47.5127 331.088 48.5488 330.199 49.5334 329.335L49.7218 329.173L49.9187 329.318C52.8214 331.448 55.1418 333.705 56.7943 335.552H56.469C59.0805 333.166 60.1679 331.225 60.2707 331.302H60.2792Z" fill="#263238"/>
<path d="M483.964 73.7646H110.712C103.822 73.7646 98.2363 79.343 98.2363 86.2242V324.297C98.2363 331.179 103.822 336.757 110.712 336.757H483.964C490.854 336.757 496.439 331.179 496.439 324.297V86.2242C496.439 79.343 490.854 73.7646 483.964 73.7646Z" fill="#455A64"/>
<path d="M85.2044 319.766H516.621V327.556C516.621 335.954 509.796 342.778 501.38 342.778H100.437C92.0286 342.778 85.1958 335.962 85.1958 327.556V319.766H85.2044Z" fill="#455A64"/>
<path d="M258.079 317.303L263.439 325.803H338.771L343.737 317.303H258.079Z" fill="#263238"/>
<path d="M493.014 317.302C493.014 317.448 404.633 317.559 295.634 317.559C186.634 317.559 98.2363 317.448 98.2363 317.302C98.2363 317.157 186.6 317.046 295.634 317.046C404.667 317.046 493.014 317.157 493.014 317.302Z" fill="#263238"/>
<path d="M112.441 88.8838H480.667C482.217 88.8838 483.467 90.1409 483.467 91.6801V307.545C483.467 309.093 482.208 310.342 480.667 310.342H112.441C110.891 310.342 109.641 309.084 109.641 307.545V91.6801C109.641 90.1323 110.9 88.8838 112.441 88.8838Z" fill="#EBEBEB"/>
<path d="M483.073 310.675H109.239L109.641 105.439H483.073V310.675Z" fill="white"/>
<path d="M140.303 97.4356C140.303 99.0861 138.967 100.42 137.315 100.42C135.662 100.42 134.327 99.0861 134.327 97.4356C134.327 95.7852 135.662 94.4512 137.315 94.4512C138.967 94.4512 140.303 95.7852 140.303 97.4356Z" fill="#263238"/>
<path d="M122.202 97.4356C122.202 99.0861 120.866 100.42 119.214 100.42C117.561 100.42 116.226 99.0861 116.226 97.4356C116.226 95.7852 117.561 94.4512 119.214 94.4512C120.866 94.4512 122.202 95.7852 122.202 97.4356Z" fill="#263238"/>
<path d="M130.893 97.4356C130.893 99.0861 129.557 100.42 127.905 100.42C126.252 100.42 124.917 99.0861 124.917 97.4356C124.917 95.7852 126.252 94.4512 127.905 94.4512C129.557 94.4512 130.893 95.7852 130.893 97.4356Z" fill="#263238"/>
<path d="M483.475 290.853H109.239V310.675H483.475V290.853Z" fill="#263238"/>
<path d="M123.376 303.056V303.689H120.396V303.184L122.006 301.662C122.399 301.286 122.468 301.055 122.468 300.824C122.468 300.456 122.211 300.243 121.714 300.243C121.321 300.243 120.995 300.38 120.764 300.662L120.242 300.26C120.55 299.841 121.115 299.593 121.774 299.593C122.656 299.593 123.221 300.037 123.221 300.756C123.221 301.149 123.11 301.508 122.554 302.03L121.475 303.056H123.384H123.376Z" fill="white"/>
<path d="M123.787 301.055C123.787 300.764 124.001 300.576 124.258 300.576C124.514 300.576 124.728 300.764 124.728 301.055C124.728 301.346 124.514 301.534 124.258 301.534C124.001 301.534 123.787 301.329 123.787 301.055ZM123.787 303.253C123.787 302.962 124.001 302.774 124.258 302.774C124.514 302.774 124.728 302.962 124.728 303.253C124.728 303.544 124.514 303.732 124.258 303.732C124.001 303.732 123.787 303.526 123.787 303.253Z" fill="white"/>
<path d="M126.612 299.653V303.689H125.859V300.277H125.002V299.645H126.604L126.612 299.653Z" fill="white"/>
<path d="M131.022 302.774H130.302V303.689H129.575V302.774H127.357V302.252L129.352 299.652H130.157L128.282 302.141H129.609V301.328H130.311V302.141H131.03V302.774H131.022Z" fill="white"/>
<path d="M444.363 301.157H137.624V302.551H444.363V301.157Z" fill="white"/>
<path d="M233.248 299.652H137.392V303.381H233.248V299.652Z" fill="#FF725E"/>
<path d="M236.348 301.859C236.348 304.433 234.258 306.519 231.681 306.519C229.104 306.519 227.015 304.433 227.015 301.859C227.015 299.285 229.104 297.198 231.681 297.198C234.258 297.198 236.348 299.285 236.348 301.859Z" fill="#FF725E"/>
<path d="M452.085 301.815C452.085 302.619 451.435 303.124 450.604 303.124C449.5 303.124 448.857 302.414 448.857 301.114C448.857 299.729 449.662 298.968 450.835 298.968C451.238 298.968 451.623 299.053 451.897 299.224L451.623 299.789C451.4 299.643 451.135 299.592 450.852 299.592C450.09 299.592 449.611 300.062 449.611 300.986C449.851 300.712 450.245 300.567 450.69 300.567C451.486 300.567 452.085 301.054 452.085 301.807V301.815ZM451.358 301.85C451.358 301.431 451.041 301.166 450.553 301.166C450.065 301.166 449.731 301.456 449.731 301.858C449.731 302.26 450.03 302.542 450.57 302.542C451.041 302.542 451.358 302.277 451.358 301.858V301.85Z" fill="white"/>
<path d="M452.454 300.43C452.454 300.139 452.668 299.951 452.925 299.951C453.182 299.951 453.396 300.139 453.396 300.43C453.396 300.721 453.182 300.909 452.925 300.909C452.668 300.909 452.454 300.704 452.454 300.43ZM452.454 302.628C452.454 302.337 452.668 302.149 452.925 302.149C453.182 302.149 453.396 302.337 453.396 302.628C453.396 302.919 453.182 303.107 452.925 303.107C452.668 303.107 452.454 302.901 452.454 302.628Z" fill="white"/>
<path d="M453.884 301.046C453.884 299.72 454.612 298.968 455.571 298.968C456.53 298.968 457.266 299.72 457.266 301.046C457.266 302.371 456.538 303.124 455.571 303.124C454.603 303.124 453.884 302.371 453.884 301.046ZM456.504 301.046C456.504 300.071 456.127 299.618 455.571 299.618C455.014 299.618 454.637 300.071 454.637 301.046C454.637 302.021 455.023 302.474 455.571 302.474C456.119 302.474 456.504 302.021 456.504 301.046Z" fill="white"/>
<path d="M457.763 301.046C457.763 299.72 458.491 298.968 459.45 298.968C460.409 298.968 461.145 299.72 461.145 301.046C461.145 302.371 460.417 303.124 459.45 303.124C458.482 303.124 457.763 302.371 457.763 301.046ZM460.383 301.046C460.383 300.071 460.006 299.618 459.45 299.618C458.893 299.618 458.516 300.071 458.516 301.046C458.516 302.021 458.902 302.474 459.45 302.474C459.998 302.474 460.383 302.021 460.383 301.046Z" fill="white"/>
<path d="M467.678 300.798H466.273V296.771H470.298V298.164H467.678V300.798Z" fill="white"/>
<path d="M470.306 306.049H466.273V302.029H467.669V304.655H470.306V306.049Z" fill="white"/>
<path d="M476.72 306.049H472.695V304.655H475.324V302.021H476.72V306.049Z" fill="white"/>
<path d="M476.728 300.79H475.333V298.164H472.695V296.771H476.728V300.79Z" fill="white"/>
<path d="M160.502 117.643H138.471L127.451 136.695L138.471 155.757H160.502L171.522 136.695L160.502 117.643Z" fill="#EBEBEB"/>
<path d="M140.269 140.424C139.284 139.338 138.291 138.234 137.572 136.952C136.852 135.669 136.424 134.181 136.664 132.727C136.801 131.881 137.161 131.077 137.221 130.222C137.298 129.042 136.801 127.81 137.221 126.707C137.871 124.98 140.2 124.715 141.613 123.526C142.709 122.594 143.249 121.089 144.456 120.311C145.509 119.626 146.87 119.643 148.112 119.823C149.354 120.003 150.612 120.311 151.854 120.148C152.744 120.028 153.575 119.669 154.448 119.455C155.322 119.242 156.289 119.182 157.06 119.635C157.83 120.088 158.267 121.183 157.762 121.918C159.209 121.251 161.041 122.38 161.435 123.911C161.829 125.45 161.041 127.109 159.817 128.127C158.592 129.144 157.008 129.615 155.45 129.905C151.032 130.735 146.228 130.264 142.418 127.879" fill="#263238"/>
<path d="M160.699 145.136C160.553 142.408 159.783 136.815 159.038 131.761C158.233 126.322 153.378 122.423 147.89 122.791L147.342 122.825C141.485 123.56 138.839 128.939 139.738 134.771L141.459 155.765H155.758C155.758 155.765 155.424 152.079 155.416 152.045C155.416 152.045 161.007 150.788 160.699 145.144V145.136Z" fill="#FFBE9D"/>
<path d="M155.416 151.951C155.416 151.951 151.863 152.481 147.907 150.352C147.907 150.352 149.919 154.294 155.527 153.413L155.416 151.951Z" fill="#EB996E"/>
<path d="M157.215 136.601C157.257 137.029 156.932 137.414 156.487 137.465C156.042 137.516 155.648 137.217 155.605 136.798C155.562 136.371 155.887 135.986 156.324 135.934C156.769 135.883 157.163 136.182 157.206 136.61L157.215 136.601Z" fill="#263238"/>
<path d="M158.002 134.6C157.908 134.711 157.266 134.301 156.401 134.36C155.536 134.412 154.928 134.899 154.826 134.797C154.774 134.754 154.868 134.557 155.125 134.335C155.382 134.112 155.836 133.89 156.375 133.856C156.915 133.822 157.386 133.993 157.66 134.181C157.942 134.369 158.045 134.549 157.994 134.6H158.002Z" fill="#263238"/>
<path d="M149.011 137.183C149.054 137.61 148.729 137.995 148.284 138.046C147.838 138.098 147.445 137.798 147.402 137.379C147.359 136.952 147.684 136.567 148.121 136.515C148.566 136.464 148.96 136.763 149.003 137.191L149.011 137.183Z" fill="#263238"/>
<path d="M149.474 135.326C149.38 135.438 148.737 135.027 147.873 135.087C147.008 135.138 146.4 135.626 146.297 135.523C146.246 135.48 146.34 135.284 146.605 135.061C146.862 134.839 147.316 134.617 147.856 134.583C148.395 134.548 148.866 134.719 149.14 134.907C149.422 135.096 149.525 135.275 149.474 135.326Z" fill="#263238"/>
<path d="M153.061 141.553C153.061 141.501 153.584 141.373 154.457 141.202C154.68 141.168 154.885 141.108 154.911 140.954C154.954 140.792 154.842 140.561 154.722 140.304C154.474 139.782 154.226 139.235 153.952 138.662C152.882 136.319 152.085 134.395 152.179 134.352C152.274 134.31 153.224 136.174 154.294 138.517C154.551 139.098 154.8 139.646 155.039 140.176C155.142 140.424 155.305 140.697 155.211 141.04C155.159 141.211 155.005 141.339 154.868 141.39C154.731 141.441 154.603 141.45 154.491 141.467C153.618 141.57 153.07 141.612 153.061 141.561V141.553Z" fill="#263238"/>
<path d="M149.474 131.915C149.405 132.154 148.532 132.103 147.521 132.291C146.503 132.462 145.706 132.813 145.552 132.616C145.484 132.522 145.612 132.291 145.929 132.035C146.246 131.787 146.751 131.53 147.359 131.428C147.967 131.316 148.532 131.376 148.917 131.504C149.302 131.633 149.499 131.804 149.474 131.915Z" fill="#263238"/>
<path d="M157.514 132.112C157.377 132.317 156.76 132.155 156.041 132.189C155.322 132.206 154.722 132.411 154.568 132.214C154.5 132.12 154.585 131.915 154.834 131.71C155.082 131.505 155.51 131.325 156.007 131.308C156.503 131.291 156.94 131.436 157.205 131.624C157.471 131.813 157.574 132.009 157.505 132.112H157.514Z" fill="#263238"/>
<path d="M140.483 138.91C140.38 138.876 136.519 138.021 136.904 141.878C137.289 145.726 141.468 144.477 141.459 144.366C141.459 144.255 140.483 138.919 140.483 138.919V138.91Z" fill="#FFBE9D"/>
<path d="M139.747 143.092C139.747 143.092 139.687 143.144 139.575 143.212C139.473 143.272 139.284 143.323 139.07 143.272C138.651 143.161 138.24 142.554 138.154 141.861C138.111 141.51 138.154 141.168 138.248 140.886C138.334 140.595 138.505 140.381 138.702 140.322C138.899 140.253 139.062 140.364 139.113 140.467C139.173 140.57 139.156 140.647 139.182 140.655C139.19 140.664 139.259 140.587 139.207 140.424C139.182 140.347 139.13 140.262 139.027 140.202C138.925 140.133 138.788 140.108 138.642 140.142C138.351 140.193 138.103 140.493 138 140.809C137.88 141.125 137.82 141.51 137.871 141.904C137.974 142.673 138.445 143.366 139.019 143.469C139.293 143.511 139.515 143.409 139.627 143.306C139.738 143.195 139.747 143.109 139.738 143.109L139.747 143.092Z" fill="#EB996E"/>
<path d="M158.747 126.485C158.481 128.016 155.373 129.418 152.787 129.35C150.407 129.281 149.234 128.101 147.504 127.263C146.774 126.91 145.915 126.813 144.927 126.972C143.728 127.169 143.103 128.58 142.427 129.589C143.711 132.386 143.189 135.635 142.649 138.662C142.589 138.996 142.512 139.355 142.256 139.586C141.819 139.971 141.117 139.74 140.697 139.346C140.012 138.722 139.704 137.799 139.481 136.901C138.968 134.857 138.779 132.719 139.096 130.641C139.421 128.563 140.278 126.536 141.708 124.989C143.489 123.047 146.083 121.927 148.72 121.79C151.349 121.653 153.995 122.466 156.195 123.911C157.214 124.578 158.173 125.408 158.747 126.485Z" fill="#263238"/>
<path d="M153.626 143.502C152.967 143.194 152.316 142.895 151.657 142.587C151.545 142.536 151.425 142.485 151.297 142.493C151.16 142.51 151.049 142.613 150.955 142.724C150.501 143.271 150.381 144.109 150.74 144.734C151.092 145.358 151.922 145.683 152.581 145.409C153.275 145.118 153.617 144.315 153.669 143.562L153.617 143.502H153.626Z" fill="#EB996E"/>
<path d="M152.65 145.555C152.65 145.555 152.239 145.871 151.494 145.657C151.134 145.546 150.732 145.272 150.475 144.828C150.218 144.391 150.124 143.776 150.347 143.22C150.449 142.946 150.621 142.698 150.826 142.51C150.929 142.416 151.032 142.331 151.16 142.262C151.289 142.168 151.554 142.16 151.674 142.237C152.119 142.485 152.427 142.698 152.727 142.895C153.301 143.28 153.643 143.536 153.609 143.596C153.575 143.648 153.181 143.485 152.564 143.169C152.205 142.98 151.862 142.801 151.52 142.621C151.434 142.596 151.443 142.596 151.366 142.638C151.289 142.69 151.194 142.758 151.126 142.835C150.972 142.989 150.843 143.177 150.766 143.391C150.595 143.819 150.655 144.289 150.843 144.648C151.032 145.007 151.323 145.247 151.614 145.375C152.205 145.631 152.641 145.495 152.659 145.563L152.65 145.555Z" fill="#263238"/>
<path d="M152.033 136.695C151.991 136.695 151.999 136.335 151.819 135.737C151.648 135.147 151.237 134.283 150.347 133.625C149.482 132.966 148.069 132.599 146.708 133.112C145.355 133.582 144.19 135.019 144.207 136.695C144.19 138.371 145.355 139.807 146.708 140.278C148.069 140.791 149.482 140.423 150.347 139.765C151.237 139.106 151.657 138.242 151.819 137.652C151.991 137.054 151.982 136.686 152.033 136.695C152.051 136.695 152.059 136.78 152.068 136.951C152.076 137.122 152.068 137.379 151.991 137.695C151.862 138.328 151.477 139.269 150.535 140.013C149.627 140.757 148.078 141.201 146.562 140.663C145.055 140.167 143.736 138.567 143.754 136.695C143.736 134.822 145.055 133.223 146.562 132.727C148.086 132.179 149.627 132.624 150.535 133.377C151.477 134.121 151.862 135.07 151.991 135.694C152.059 136.011 152.076 136.267 152.068 136.438C152.068 136.609 152.051 136.695 152.033 136.695Z" fill="#263238"/>
<path d="M161.649 136.319C161.606 136.319 161.606 135.969 161.443 135.387C161.281 134.814 160.878 133.976 160.005 133.335C159.166 132.693 157.787 132.343 156.46 132.839C155.142 133.292 154.011 134.694 154.028 136.328C154.011 137.961 155.15 139.355 156.46 139.817C157.787 140.313 159.166 139.962 160.005 139.321C160.878 138.679 161.281 137.841 161.443 137.268C161.615 136.678 161.606 136.328 161.649 136.336C161.666 136.336 161.675 136.422 161.683 136.593C161.692 136.755 161.683 137.003 161.615 137.32C161.495 137.935 161.118 138.85 160.202 139.586C159.32 140.313 157.813 140.749 156.323 140.219C154.85 139.731 153.566 138.175 153.583 136.345C153.566 134.515 154.85 132.958 156.323 132.471C157.804 131.941 159.311 132.377 160.202 133.104C161.118 133.831 161.495 134.754 161.615 135.37C161.683 135.678 161.692 135.926 161.683 136.097C161.683 136.259 161.666 136.353 161.649 136.353V136.319Z" fill="#263238"/>
<path d="M153.806 135.43C153.72 135.515 153.335 135.267 152.821 135.284C152.307 135.284 151.939 135.549 151.845 135.464C151.725 135.404 152.085 134.848 152.813 134.831C153.54 134.823 153.917 135.361 153.806 135.421V135.43Z" fill="#263238"/>
<path d="M144.224 136.122C144.302 136.225 143.548 136.9 142.555 137.644C141.562 138.388 140.688 138.91 140.62 138.807C140.543 138.705 141.296 138.029 142.289 137.285C143.283 136.541 144.156 136.02 144.224 136.122Z" fill="#263238"/>
<path d="M223.692 136.508C223.692 136.627 213.786 136.73 201.567 136.73C189.349 136.73 179.442 136.627 179.442 136.508C179.442 136.388 189.349 136.285 201.567 136.285C213.786 136.285 223.692 136.388 223.692 136.508Z" fill="#263238"/>
<path d="M203.237 141.125C203.237 141.244 197.98 141.347 191.489 141.347C184.999 141.347 179.742 141.244 179.742 141.125C179.742 141.005 184.999 140.902 191.489 140.902C197.98 140.902 203.237 141.005 203.237 141.125Z" fill="#263238"/>
<path d="M356.247 170.671C356.247 170.671 368.004 176.392 372.139 191.169C376.275 205.946 388.913 244.427 388.913 244.427C388.913 244.427 396.14 252.919 396.919 259.204C397.689 265.49 396.148 280.703 393.819 283.542C391.499 286.381 388.185 285.911 388.185 285.911L357.763 283.029L345.784 202.919L356.247 170.671Z" fill="#FF725E"/>
<path d="M255.647 169.268C255.647 169.268 233.899 176.083 228.479 182.009L246.289 264.762L246.006 290.87H349.132C349.132 289.579 350.056 204.183 350.056 204.183L356.247 170.67L319.591 164.222L312.365 158.553L271.582 160.614L265.392 166.796L255.656 169.259L255.647 169.268Z" fill="#FF725E"/>
<g opacity="0.3">
<path d="M263.91 241.058C263.594 240.357 263.14 239.595 262.386 239.442C261.145 239.185 260.314 240.656 259.895 241.845C256.547 251.32 252.111 260.034 246.349 268.26L246.083 280.968C252.094 275.914 258.019 270.501 261.855 263.651C265.691 256.801 267.156 248.207 263.919 241.058H263.91Z" fill="black"/>
</g>
<path d="M228.479 182.019C228.479 182.019 221.312 191.776 218.333 198.147C215.353 204.518 190.693 258.016 189.212 263.54C187.722 269.064 183.895 286.466 195.163 290.503H218.333L241.588 243.529L242.778 189.014L228.471 182.019H228.479Z" fill="#FF725E"/>
<path d="M219.823 256.57C219.823 256.57 219.309 256.117 218.239 255.51C217.177 254.911 215.516 254.218 213.375 253.748C212.305 253.517 211.115 253.329 209.83 253.252C208.546 253.175 207.168 253.192 205.763 253.517C202.955 254.141 200.163 255.92 197.963 258.409C195.728 260.897 194.358 263.839 193.545 266.609C192.723 269.389 192.372 271.997 192.149 274.177C191.935 276.367 191.849 278.145 191.772 279.377C191.738 279.95 191.704 280.42 191.687 280.796C191.661 281.121 191.644 281.292 191.627 281.292C191.61 281.292 191.601 281.121 191.601 280.796C191.601 280.42 191.601 279.95 191.601 279.377C191.627 278.145 191.661 276.358 191.832 274.152C192.012 271.954 192.337 269.32 193.142 266.49C193.939 263.676 195.334 260.658 197.62 258.109C199.872 255.561 202.749 253.739 205.669 253.115C207.125 252.79 208.546 252.782 209.848 252.884C211.149 252.978 212.356 253.184 213.435 253.44C215.601 253.953 217.263 254.697 218.316 255.356C218.838 255.689 219.223 255.988 219.463 256.211C219.703 256.433 219.823 256.561 219.806 256.57H219.823Z" fill="#263238"/>
<path d="M208.829 247.215C208.829 247.215 209.103 247.138 209.608 247.086C210.113 247.026 210.849 247.009 211.757 247.061C212.665 247.103 213.743 247.257 214.916 247.531C216.081 247.822 217.348 248.249 218.607 248.839C219.857 249.447 220.987 250.156 221.946 250.883C222.897 251.627 223.693 252.363 224.301 253.047C224.909 253.722 225.363 254.304 225.628 254.731C225.902 255.159 226.048 255.398 226.022 255.415C225.953 255.467 225.328 254.535 224.07 253.26C223.445 252.619 222.64 251.918 221.698 251.217C220.739 250.524 219.634 249.84 218.41 249.25C217.177 248.668 215.953 248.249 214.814 247.941C213.666 247.651 212.622 247.471 211.731 247.394C209.95 247.223 208.837 247.317 208.829 247.232V247.215Z" fill="#263238"/>
<path d="M229.78 244.641C229.78 244.641 229.395 244.641 228.71 244.555C228.025 244.47 227.032 244.367 225.808 244.273C223.359 244.085 219.951 244.042 216.218 244.487C212.493 244.94 209.188 245.787 206.85 246.539C205.677 246.916 204.735 247.249 204.093 247.497C203.451 247.737 203.083 247.856 203.074 247.831C203.066 247.805 203.4 247.625 204.033 247.335C204.658 247.035 205.583 246.659 206.756 246.24C209.085 245.402 212.407 244.496 216.175 244.042C219.934 243.598 223.384 243.692 225.842 243.957C227.075 244.085 228.068 244.239 228.744 244.376C229.421 244.513 229.798 244.598 229.789 244.632L229.78 244.641Z" fill="#263238"/>
<path d="M295.78 198.933C295.78 198.933 295.694 198.847 295.54 198.651C295.377 198.428 295.163 198.146 294.906 197.804C294.341 197.017 293.553 195.931 292.577 194.58C290.574 191.758 287.791 187.833 284.503 183.207L284.862 183.155C283.612 186.815 282.234 190.86 280.787 195.11L280.693 195.375L280.461 195.222C280.307 195.127 280.145 195.016 279.982 194.914C278.064 193.699 276.369 192.237 274.939 190.655C273.509 189.064 272.319 187.371 271.334 185.678C269.365 182.283 268.174 178.939 267.369 176.109C266.565 173.27 266.145 170.91 265.871 169.293C265.734 168.515 265.631 167.9 265.546 167.429C265.503 167.215 265.46 167.061 265.434 166.95C265.392 166.856 265.374 166.796 265.383 166.796C265.477 166.754 265.725 167.652 266.042 169.268C266.376 170.875 266.839 173.219 267.678 176.032C268.517 178.837 269.724 182.146 271.693 185.481C272.678 187.149 273.851 188.808 275.264 190.373C276.685 191.921 278.346 193.357 280.222 194.546C280.384 194.649 280.547 194.751 280.693 194.845L280.367 194.965C281.831 190.715 283.218 186.679 284.477 183.027L284.606 182.642L284.837 182.976C288.065 187.636 290.805 191.596 292.774 194.443C293.716 195.82 294.461 196.932 295.009 197.736C295.249 198.095 295.437 198.386 295.591 198.616C295.72 198.822 295.779 198.924 295.771 198.933H295.78Z" fill="#263238"/>
<g opacity="0.3">
<path d="M322.631 238.433C321.672 248.002 323.787 257.853 328.591 266.182C333.386 274.52 340.424 281.943 349.183 285.936C349.466 277.444 349.055 267.439 349.337 258.948L322.631 238.433Z" fill="black"/>
</g>
<path d="M321.664 227.255C321.664 227.255 317.922 228.29 320.731 235.961C323.539 243.623 324.472 243.161 326.347 250.336C328.223 257.502 330.406 264.052 333.685 268.106C336.965 272.159 349.141 280.42 349.141 280.42L360.066 270.132C360.066 270.132 358.268 262.462 358.696 257.254C359.124 252.046 360.22 239.261 360.066 237.081C359.912 234.9 357.566 229.598 357.566 229.598V225.972L351.949 208.707C351.949 208.707 348.824 207.305 347.736 212.29L345.861 206.997C345.861 206.997 342.899 206.526 342.119 212.606C341.34 218.687 342.744 227.101 342.744 227.101L341.186 237.705L338.849 244.871L336.819 245.179C336.819 245.179 333.763 244.35 332.093 238.603C330.423 232.865 325.894 226.007 321.681 227.255H321.664Z" fill="#FFBE9D"/>
<path d="M356.393 254.363C356.393 254.363 356.367 254.226 356.341 253.97C356.324 253.67 356.298 253.294 356.264 252.824C356.204 251.78 356.127 250.335 356.033 248.531C355.862 244.811 355.631 239.629 355.357 233.583L355.408 233.711C354.903 233.112 354.012 232.933 353.199 233.138C352.368 233.335 351.632 233.848 351.17 234.618C350.219 236.148 350.159 238.149 349.868 240.082C349.277 244.452 348.712 248.608 348.198 252.405C347.942 254.294 347.668 256.099 347.291 257.766C346.931 259.434 346.426 260.956 345.938 262.316C345.458 263.675 345.03 264.907 344.765 266.019C344.499 267.13 344.388 268.105 344.414 268.909C344.448 270.517 344.919 271.338 344.842 271.355C344.825 271.355 344.739 271.158 344.577 270.756C344.448 270.346 344.268 269.73 344.234 268.918C344.183 268.105 344.268 267.096 344.517 265.967C344.765 264.838 345.176 263.59 345.638 262.222C346.109 260.853 346.589 259.357 346.931 257.698C347.282 256.048 347.539 254.252 347.787 252.362C348.293 248.565 348.841 244.409 349.423 240.039C349.56 239.064 349.663 238.107 349.834 237.14C350.005 236.182 350.271 235.225 350.801 234.404C351.298 233.566 352.171 232.95 353.096 232.736C354.012 232.505 355.1 232.711 355.725 233.463L355.768 233.523V233.591C355.982 239.637 356.153 244.819 356.281 248.548C356.324 250.352 356.367 251.797 356.393 252.849C356.393 253.32 356.401 253.696 356.401 253.995C356.401 254.252 356.401 254.389 356.384 254.389L356.393 254.363Z" fill="#EB996E"/>
<path d="M350.425 234.72C350.425 234.72 350.228 234.387 349.963 233.746C349.706 233.104 349.364 232.155 349.047 230.949C348.73 229.752 348.43 228.29 348.259 226.656C348.173 225.835 348.114 224.963 348.216 224.057C348.31 223.15 348.576 222.193 349.158 221.389C349.655 220.687 350.357 220.123 351.153 219.892L351.324 219.841L351.41 219.995C352.994 222.783 354.364 225.245 355.332 227.016C355.777 227.845 356.145 228.538 356.453 229.111C356.71 229.607 356.839 229.88 356.813 229.897C356.787 229.914 356.616 229.658 356.316 229.188C355.982 228.64 355.571 227.965 355.083 227.161C354.047 225.425 352.626 222.996 351.025 220.217L351.282 220.32C350.597 220.525 349.972 221.012 349.526 221.654C349.004 222.389 348.747 223.261 348.653 224.117C348.559 224.98 348.602 225.827 348.67 226.631C348.816 228.247 349.073 229.692 349.355 230.889C349.629 232.087 349.92 233.044 350.126 233.703C350.331 234.361 350.451 234.72 350.425 234.738V234.72Z" fill="#EB996E"/>
<path d="M347.813 236.124C347.813 236.124 347.745 235.773 347.71 235.132C347.685 234.396 347.642 233.49 347.599 232.421C347.522 230.129 347.454 226.965 347.402 223.467C347.376 219.97 347.239 216.797 347.539 214.497C347.685 213.351 347.916 212.436 348.121 211.829C348.327 211.213 348.498 210.897 348.524 210.914C348.601 210.939 348.044 212.265 347.847 214.54C347.633 216.806 347.813 219.97 347.847 223.467C347.899 226.965 347.916 230.129 347.916 232.421C347.907 233.49 347.89 234.396 347.882 235.14C347.865 235.781 347.839 236.132 347.813 236.141V236.124Z" fill="#EB996E"/>
<path d="M338.575 264.864C338.515 264.813 339.191 264.009 340.039 262.547C340.467 261.82 340.904 260.914 341.306 259.887C341.692 258.844 342.043 257.673 342.282 256.415C342.505 255.15 342.582 253.936 342.582 252.824C342.565 251.712 342.471 250.712 342.325 249.891C342.043 248.232 341.683 247.24 341.76 247.214C341.786 247.206 341.897 247.445 342.068 247.89C342.248 248.334 342.445 249.001 342.634 249.831C342.822 250.669 342.95 251.687 342.993 252.815C343.019 253.953 342.942 255.201 342.719 256.492C342.479 257.784 342.111 258.981 341.692 260.033C341.255 261.076 340.776 261.991 340.305 262.709C339.842 263.428 339.423 263.984 339.097 264.334C338.78 264.693 338.592 264.881 338.566 264.856L338.575 264.864Z" fill="#EB996E"/>
<path d="M357.754 259.503L367.233 262.786C367.233 262.786 376.283 258.109 382.525 262.786C388.767 267.464 394.187 279.787 392.474 284.772C392.474 284.772 388.168 290.083 384.888 290.861C381.609 291.639 368.868 288.561 363.568 287.44C358.251 286.32 349.123 280.394 349.123 280.394L357.745 259.494L357.754 259.503Z" fill="#FFBE9D"/>
<path d="M358.919 273.459C358.919 273.459 358.851 273.159 358.816 272.621C358.782 271.979 358.731 271.218 358.679 270.337C358.577 268.405 358.448 265.737 358.405 262.778C358.363 259.819 358.448 257.142 358.628 255.21C358.714 254.244 358.816 253.465 358.911 252.927C359.005 252.388 359.073 252.097 359.108 252.106C359.176 252.114 359.03 253.303 358.936 255.227C358.842 257.151 358.808 259.819 358.851 262.769C358.902 265.66 358.953 268.277 358.988 270.329C358.996 271.295 358.988 272.082 358.988 272.621C358.971 273.159 358.945 273.459 358.919 273.459Z" fill="#EB996E"/>
<path d="M390.18 262.419C390.111 262.488 389.135 261.137 387.029 259.58C384.948 258.024 381.575 256.365 377.585 256.142C373.586 255.929 370.05 257.203 367.815 258.52C365.546 259.837 364.433 261.068 364.373 260.991C364.356 260.974 364.621 260.658 365.152 260.145C365.683 259.631 366.522 258.947 367.652 258.246C369.887 256.835 373.5 255.475 377.61 255.698C381.72 255.929 385.162 257.682 387.226 259.324C388.271 260.145 389.033 260.923 389.503 261.487C389.983 262.052 390.206 262.402 390.188 262.411L390.18 262.419Z" fill="#263238"/>
<path d="M388.964 254.526C388.904 254.62 387.637 253.338 385.017 252.354C382.44 251.345 378.441 250.883 374.339 252.038C372.293 252.611 370.418 253.423 368.817 254.33C367.216 255.245 365.88 256.245 364.818 257.151C363.756 258.058 362.943 258.853 362.386 259.401C361.83 259.956 361.522 260.256 361.496 260.239C361.479 260.221 361.744 259.879 362.267 259.281C362.789 258.691 363.568 257.861 364.621 256.912C365.666 255.963 367.002 254.92 368.62 253.97C370.238 253.03 372.139 252.183 374.228 251.602C378.432 250.421 382.534 250.952 385.137 252.055C386.455 252.594 387.431 253.218 388.056 253.697C388.382 253.928 388.596 254.15 388.75 254.287C388.904 254.432 388.981 254.509 388.964 254.518V254.526Z" fill="#263238"/>
<path d="M389.041 247.685C389.015 247.771 387.363 247.266 384.606 246.898C383.227 246.702 381.575 246.59 379.742 246.59C377.91 246.616 375.898 246.77 373.809 247.121C371.728 247.497 369.784 248.044 368.046 248.643C366.325 249.267 364.809 249.934 363.585 250.592C361.128 251.884 359.74 252.918 359.689 252.85C359.672 252.824 360.006 252.559 360.64 252.089C360.948 251.85 361.342 251.576 361.813 251.285C362.284 250.994 362.814 250.635 363.431 250.319C364.647 249.626 366.171 248.925 367.9 248.266C369.647 247.642 371.617 247.078 373.723 246.693C375.838 246.334 377.876 246.188 379.734 246.188C381.592 246.214 383.261 246.359 384.64 246.599C385.333 246.684 385.95 246.847 386.498 246.958C387.046 247.069 387.508 247.198 387.877 247.309C388.63 247.531 389.032 247.668 389.024 247.694L389.041 247.685Z" fill="#263238"/>
<path d="M316.398 163.94C316.398 163.94 316.835 164.761 317.058 166.455C317.289 168.139 317.254 170.67 316.698 173.8C316.415 175.365 316.039 177.084 315.473 178.923C314.883 180.761 313.992 182.643 312.982 184.609C310.944 188.543 308.367 192.827 305.396 197.402L305.044 197.941V197.3C305.044 194.281 305.036 191.108 305.027 187.808L305.361 187.97C302.81 190.022 300.13 192.186 297.364 194.418L297.432 194.315C295.583 200.182 294.359 206.715 293.879 213.513C293.1 223.921 293.725 233.874 294.222 242.905C294.641 251.944 294.915 260.093 295.198 266.926C295.472 273.767 295.72 279.291 295.926 283.114C296.037 285.004 296.122 286.483 296.182 287.509C296.217 287.997 296.242 288.373 296.259 288.655C296.277 288.912 296.268 289.049 296.268 289.049C296.268 289.049 296.242 288.92 296.208 288.664C296.182 288.39 296.14 288.005 296.088 287.526C295.994 286.526 295.874 285.038 295.746 283.131C295.489 279.308 295.189 273.784 294.881 266.943C294.573 260.102 294.213 251.961 293.802 242.93C293.288 233.909 292.646 223.929 293.425 213.488C293.913 206.664 295.138 200.096 297.013 194.196L297.03 194.136L297.081 194.093C299.847 191.87 302.536 189.715 305.087 187.662L305.421 187.397V187.825C305.421 191.117 305.413 194.29 305.404 197.317L305.053 197.214C310.935 188.107 315.722 180.188 316.458 173.783C317.049 170.679 317.117 168.173 316.921 166.489C316.835 165.642 316.672 165.018 316.569 164.59C316.432 164.171 316.381 163.958 316.381 163.958L316.398 163.94Z" fill="#263238"/>
<path d="M301.045 274.255H300.737C299.495 274.281 298.391 275.409 298.391 276.649C298.391 277.889 299.487 279.027 300.72 279.069C301.961 279.112 303.134 278.052 303.211 276.82C303.297 275.589 302.269 274.383 301.036 274.263L301.045 274.255Z" fill="white"/>
<path d="M301.046 241.297H300.738C299.496 241.323 298.392 242.451 298.392 243.691C298.392 244.931 299.488 246.069 300.721 246.111C301.962 246.154 303.135 245.094 303.212 243.862C303.298 242.631 302.27 241.425 301.037 241.305L301.046 241.297Z" fill="white"/>
<path d="M300.72 211.812C301.962 211.855 303.135 210.794 303.212 209.563C303.298 208.331 302.27 207.126 301.037 207.006H300.729C299.487 207.032 298.383 208.16 298.383 209.4C298.383 210.64 299.479 211.778 300.712 211.82L300.72 211.812Z" fill="white"/>
<path d="M263.756 125.322C260.75 122.004 257.728 118.643 255.536 114.744C253.344 110.844 252.042 106.286 252.77 101.874C253.19 99.2912 254.294 96.837 254.466 94.2202C254.705 90.6286 253.198 86.8745 254.466 83.5137C256.461 78.2546 263.55 77.4422 267.849 73.8078C271.197 70.9773 272.823 66.3851 276.514 63.9993C279.733 61.9212 283.869 61.964 287.662 62.5027C291.455 63.0415 295.274 63.9993 299.076 63.4862C301.781 63.1185 304.333 62.0324 306.987 61.3739C309.642 60.7155 312.596 60.5445 314.959 61.9127C317.322 63.2809 318.649 66.6331 317.1 68.8822C321.501 66.8555 327.092 70.2846 328.299 74.9708C329.506 79.657 327.092 84.7281 323.359 87.8151C319.625 90.9108 314.805 92.3474 310.044 93.2453C296.558 95.7851 281.934 94.3485 270.315 87.0626" fill="#263238"/>
<path d="M311.157 170.602C310.498 165.505 309.958 161.255 309.924 160.725C309.924 160.725 326.98 156.894 326.038 139.671C325.585 131.35 323.247 114.273 320.961 98.8547C318.503 82.299 303.699 70.4124 286.977 71.5241L285.316 71.6353C267.454 73.8758 259.389 90.2861 262.129 108.048L271.761 167.626C271.761 167.626 275.871 180.804 284.673 183.087L295.77 198.924L297.603 192.109L305.874 184.917C305.874 184.917 307.775 182.864 309.95 178.854C311.731 175.57 311.354 172.201 311.14 170.602H311.157Z" fill="#FFBE9D"/>
<path d="M309.941 160.468C309.941 160.468 299.109 162.084 287.045 155.594C287.045 155.594 293.184 167.626 310.275 164.923L309.932 160.468H309.941Z" fill="#EB996E"/>
<path d="M315.43 113.657C315.567 114.948 314.574 116.129 313.221 116.3C311.868 116.462 310.67 115.547 310.533 114.256C310.404 112.965 311.389 111.776 312.733 111.613C314.086 111.451 315.285 112.366 315.422 113.666L315.43 113.657Z" fill="#263238"/>
<path d="M317.836 107.551C317.553 107.893 315.593 106.636 312.947 106.824C310.301 106.97 308.443 108.457 308.135 108.158C307.981 108.021 308.255 107.423 309.06 106.756C309.856 106.089 311.234 105.396 312.887 105.293C314.539 105.191 315.969 105.704 316.808 106.277C317.665 106.85 317.982 107.406 317.836 107.56V107.551Z" fill="#263238"/>
<path d="M290.411 115.444C290.548 116.736 289.555 117.916 288.202 118.087C286.849 118.249 285.65 117.334 285.513 116.043C285.385 114.752 286.369 113.563 287.714 113.401C289.067 113.238 290.265 114.153 290.402 115.453L290.411 115.444Z" fill="#263238"/>
<path d="M291.832 109.783C291.55 110.126 289.589 108.868 286.943 109.057C284.297 109.202 282.439 110.69 282.131 110.391C281.977 110.254 282.251 109.655 283.056 108.988C283.843 108.321 285.23 107.628 286.874 107.526C288.527 107.423 289.957 107.936 290.796 108.509C291.652 109.082 291.969 109.638 291.824 109.792L291.832 109.783Z" fill="#263238"/>
<path d="M302.757 128.758C302.732 128.613 304.358 128.211 307.004 127.698C307.672 127.587 308.306 127.407 308.391 126.937C308.52 126.441 308.186 125.731 307.809 124.961C307.064 123.371 306.285 121.703 305.463 119.95C302.192 112.81 299.778 106.926 300.069 106.798C300.36 106.67 303.237 112.348 306.508 119.488C307.295 121.25 308.049 122.926 308.768 124.534C309.076 125.286 309.573 126.124 309.299 127.159C309.153 127.672 308.682 128.074 308.254 128.219C307.826 128.382 307.449 128.416 307.116 128.459C304.444 128.784 302.774 128.904 302.757 128.758Z" fill="#263238"/>
<path d="M291.823 99.3672C291.609 100.103 288.946 99.9401 285.864 100.522C282.773 101.043 280.324 102.121 279.87 101.496C279.665 101.197 280.059 100.496 281.026 99.7263C281.985 98.9653 283.544 98.1956 285.393 97.8621C287.243 97.5372 288.972 97.7167 290.137 98.1016C291.31 98.4864 291.918 99.008 291.832 99.3586L291.823 99.3672Z" fill="#263238"/>
<path d="M316.346 99.9575C315.918 100.59 314.051 100.086 311.859 100.205C309.659 100.248 307.835 100.881 307.364 100.282C307.158 99.9917 307.407 99.3675 308.186 98.7432C308.948 98.1275 310.258 97.5716 311.765 97.5118C313.272 97.4605 314.616 97.9137 315.421 98.4781C316.234 99.0425 316.534 99.6411 316.346 99.949V99.9575Z" fill="#263238"/>
<path d="M264.398 120.703C264.098 120.592 252.325 117.993 253.489 129.742C254.654 141.483 267.395 137.661 267.386 137.319C267.369 136.977 264.406 120.712 264.406 120.712L264.398 120.703Z" fill="#FFBE9D"/>
<path d="M262.172 133.462C262.121 133.428 261.983 133.625 261.65 133.822C261.324 134.01 260.759 134.172 260.125 134.001C258.841 133.668 257.6 131.803 257.334 129.691C257.197 128.622 257.326 127.588 257.617 126.707C257.891 125.809 258.387 125.159 259.004 124.988C259.612 124.783 260.091 125.116 260.271 125.433C260.459 125.749 260.408 125.988 260.477 125.997C260.511 126.023 260.708 125.775 260.571 125.296C260.502 125.065 260.331 124.808 260.031 124.603C259.723 124.398 259.303 124.329 258.867 124.415C257.968 124.569 257.231 125.484 256.906 126.45C256.529 127.425 256.367 128.597 256.521 129.794C256.829 132.154 258.259 134.249 260.014 134.566C260.862 134.702 261.53 134.386 261.855 134.07C262.189 133.745 262.223 133.471 262.18 133.454L262.172 133.462Z" fill="#EB996E"/>
<path d="M320.104 82.8121C319.299 87.4898 309.804 91.7655 301.935 91.5432C294.683 91.3294 291.095 87.7378 285.82 85.1809C283.594 84.1034 280.974 83.8098 277.96 84.3001C274.296 84.8987 272.403 89.2086 270.348 92.2957C274.261 100.822 272.677 110.733 271.025 119.968C270.845 120.986 270.614 122.089 269.835 122.773C268.516 123.936 266.367 123.244 265.074 122.055C262.993 120.148 262.043 117.326 261.366 114.598C259.816 108.373 259.217 101.848 260.202 95.5025C261.186 89.1573 263.815 83.0003 268.156 78.2627C273.576 72.3451 281.505 68.9331 289.528 68.5226C297.551 68.1121 305.608 70.5921 312.321 74.9875C315.438 77.0228 318.349 79.5455 320.113 82.8292" fill="#263238"/>
<path d="M304.487 134.703C302.492 133.771 300.488 132.839 298.493 131.915C298.151 131.753 297.783 131.59 297.406 131.641C296.978 131.701 296.644 132.018 296.37 132.343C294.983 134.027 294.632 136.559 295.702 138.457C296.781 140.355 299.307 141.356 301.327 140.518C303.451 139.637 304.487 137.174 304.65 134.882L304.487 134.694V134.703Z" fill="#EB996E"/>
<path d="M301.516 140.945C301.534 140.997 301.242 141.168 300.643 141.296C300.052 141.407 299.128 141.458 298.066 141.108C297.013 140.774 295.822 139.953 295.086 138.636C294.341 137.354 294.067 135.549 294.718 133.916C295.026 133.103 295.514 132.385 296.105 131.821C296.405 131.539 296.721 131.299 297.081 131.085C297.269 130.983 297.501 130.88 297.775 130.863C298.04 130.846 298.28 130.914 298.468 131C298.862 131.171 299.11 131.359 299.402 131.53C299.684 131.701 299.95 131.872 300.215 132.035C300.729 132.359 301.217 132.659 301.671 132.95C303.452 134.078 304.513 134.822 304.453 134.933C304.393 135.036 303.212 134.48 301.354 133.497C300.883 133.24 300.378 132.967 299.838 132.676C299.564 132.522 299.282 132.368 298.999 132.214C298.717 132.06 298.4 131.864 298.151 131.769C297.877 131.675 297.758 131.684 297.492 131.829C297.227 131.992 296.944 132.214 296.704 132.454C296.208 132.941 295.805 133.548 295.54 134.241C294.992 135.618 295.189 137.114 295.797 138.251C296.396 139.397 297.364 140.15 298.271 140.526C299.187 140.911 300.027 140.962 300.592 140.962C301.165 140.945 301.482 140.894 301.508 140.962L301.516 140.945Z" fill="#263238"/>
<path d="M299.632 113.948C299.564 113.948 299.641 112.853 299.161 110.972C298.69 109.134 297.457 106.423 294.683 104.319C293.305 103.293 291.575 102.429 289.58 102.079C287.602 101.745 285.359 101.805 283.235 102.617C282.165 102.994 281.129 103.549 280.187 104.259C279.228 104.952 278.355 105.816 277.635 106.816C276.154 108.792 275.315 111.323 275.289 113.931C275.315 116.539 276.145 119.079 277.635 121.054C278.355 122.055 279.228 122.919 280.187 123.62C281.137 124.33 282.165 124.894 283.235 125.262C285.359 126.074 287.602 126.134 289.58 125.8C291.575 125.45 293.305 124.586 294.683 123.56C297.457 121.465 298.69 118.754 299.161 116.907C299.641 115.026 299.564 113.931 299.632 113.931C299.632 113.931 299.641 113.999 299.641 114.128C299.641 114.29 299.641 114.478 299.641 114.709C299.641 114.966 299.632 115.282 299.564 115.658C299.512 116.035 299.469 116.462 299.332 116.941C299.135 117.899 298.699 119.036 298.005 120.251C297.303 121.456 296.284 122.722 294.88 123.799C293.484 124.868 291.712 125.775 289.657 126.151C287.619 126.51 285.307 126.459 283.107 125.638C281.994 125.262 280.923 124.68 279.939 123.945C278.945 123.226 278.038 122.337 277.293 121.302C275.752 119.259 274.878 116.633 274.853 113.922C274.878 111.212 275.752 108.586 277.293 106.542C278.038 105.508 278.945 104.618 279.939 103.9C280.923 103.173 281.994 102.592 283.107 102.215C285.307 101.386 287.619 101.335 289.657 101.702C291.712 102.079 293.484 102.994 294.88 104.054C296.284 105.131 297.303 106.397 298.005 107.603C298.699 108.817 299.135 109.955 299.332 110.912C299.469 111.383 299.512 111.819 299.564 112.195C299.624 112.571 299.641 112.888 299.641 113.144C299.641 113.375 299.641 113.572 299.641 113.726C299.641 113.854 299.641 113.922 299.632 113.922V113.948Z" fill="#263238"/>
<path d="M328.95 112.802C328.882 112.802 328.95 111.733 328.488 109.903C328.025 108.107 326.827 105.465 324.121 103.43C322.785 102.429 321.098 101.583 319.155 101.249C317.228 100.924 315.045 100.984 312.973 101.779C311.928 102.138 310.926 102.686 310.002 103.378C309.068 104.054 308.221 104.901 307.519 105.875C306.071 107.8 305.258 110.262 305.232 112.811C305.258 115.359 306.071 117.822 307.51 119.746C308.212 120.721 309.06 121.559 309.993 122.243C310.918 122.936 311.92 123.483 312.964 123.842C315.036 124.629 317.211 124.697 319.146 124.364C321.09 124.022 322.777 123.175 324.112 122.183C326.818 120.139 328.017 117.506 328.471 115.71C328.933 113.88 328.865 112.811 328.933 112.811C328.95 112.811 328.95 113.076 328.933 113.572C328.933 113.82 328.925 114.136 328.865 114.495C328.813 114.863 328.77 115.282 328.642 115.744C328.222 117.574 327.049 120.302 324.301 122.431C322.939 123.474 321.21 124.364 319.206 124.723C317.22 125.074 314.968 125.022 312.819 124.218C311.74 123.851 310.695 123.286 309.736 122.568C308.769 121.867 307.887 121.003 307.159 119.994C305.652 118.002 304.804 115.445 304.787 112.802C304.813 110.16 305.66 107.603 307.167 105.61C307.895 104.601 308.777 103.729 309.745 103.036C310.704 102.327 311.748 101.762 312.827 101.395C314.976 100.591 317.228 100.539 319.215 100.89C321.218 101.258 322.948 102.147 324.309 103.182C327.058 105.311 328.231 108.03 328.651 109.869C328.779 110.331 328.83 110.75 328.873 111.118C328.933 111.477 328.95 111.793 328.942 112.041C328.95 112.546 328.95 112.802 328.942 112.802H328.95Z" fill="#263238"/>
<path d="M305.026 110.092C304.975 110.143 304.692 109.904 304.178 109.656C303.665 109.408 302.894 109.168 302.021 109.186C301.156 109.194 300.385 109.468 299.88 109.733C299.366 109.998 299.101 110.246 299.05 110.203C299.007 110.169 299.204 109.827 299.717 109.468C300.223 109.109 301.045 108.758 302.012 108.741C302.971 108.724 303.81 109.04 304.333 109.382C304.855 109.724 305.069 110.058 305.026 110.092Z" fill="#263238"/>
<path d="M275.812 112.213C275.889 112.315 273.483 114.231 270.443 116.488C267.404 118.754 264.886 120.508 264.809 120.413C264.732 120.311 267.138 118.404 270.178 116.138C273.218 113.872 275.735 112.119 275.812 112.213Z" fill="#263238"/>
<g opacity="0.3">
<path d="M265.682 167.866C264.492 179.47 268.91 191.725 278.226 198.754C278.954 199.31 279.879 199.849 280.735 199.541C281.335 199.327 281.72 198.754 282.037 198.198C284.691 193.606 285.581 188.535 284.819 183.284C283.347 187.167 282.079 190.972 280.59 195.034C272.472 190.108 267.404 179.641 265.682 167.857V167.866Z" fill="black"/>
</g>
<path opacity="0.3" d="M297.235 194.256L304.077 191.759L305.207 203.312C305.207 203.312 312.588 189.877 315.645 183.746C318.701 177.614 317.126 166.797 317.126 166.797C317.126 166.797 318.222 176.221 310.824 188.235L305.241 197.3V187.808L297.235 194.247V194.256Z" fill="black"/>
<g opacity="0.3">
<path d="M217.673 252.97C214.625 251.534 211.115 251.337 207.767 251.73C204.23 252.141 200.677 253.227 197.903 255.459C195.129 257.691 193.253 261.214 193.596 264.754L193.938 264.805C196.327 258.358 201.071 253.663 207.193 253.09C213.315 252.526 219.283 255.245 223.487 259.726C223.076 256.382 220.722 254.415 217.673 252.97Z" fill="black"/>
</g>
<g opacity="0.3">
<path d="M390.626 259.563C388.331 257.092 385.111 255.595 381.789 255.014C375.958 253.996 369.699 255.809 365.307 259.777L366.608 258.717C369.922 256.775 373.741 255.63 377.585 255.741C381.421 255.852 385.266 257.271 388.048 259.914C390.609 262.342 392.141 265.635 393.605 268.842C394.179 265.524 392.912 262.026 390.617 259.555L390.626 259.563Z" fill="black"/>
</g>
<path d="M346.537 205.911C346.537 205.911 346.623 205.569 346.845 204.979C347.111 204.304 347.436 203.474 347.821 202.491C348.652 200.396 349.782 197.497 350.99 194.281C352.188 191.057 353.224 188.124 353.969 185.995C354.32 185.003 354.62 184.165 354.86 183.481C355.074 182.891 355.211 182.566 355.237 182.574C355.262 182.583 355.185 182.925 355.022 183.532C354.86 184.139 354.603 185.02 354.269 186.098C353.601 188.253 352.608 191.211 351.409 194.435C350.21 197.659 349.02 200.541 348.121 202.611C347.667 203.645 347.291 204.475 347.017 205.048C346.743 205.621 346.58 205.928 346.554 205.911H346.537Z" fill="#263238"/>
<path d="M238.591 206.749C238.472 206.775 237.538 202.705 236.511 197.659C235.483 192.614 234.747 188.509 234.867 188.484C234.987 188.458 235.92 192.528 236.947 197.574C237.975 202.619 238.711 206.724 238.591 206.749Z" fill="#263238"/>
<path d="M236.973 257.622C237.247 257.758 233.839 230.975 233.839 230.975C233.839 230.975 235.989 210.648 237.196 209.708L237.23 202.533C237.23 202.533 240.561 200.515 241.451 203.773C241.451 203.773 244.405 201.216 244.919 207.305C245.433 213.393 245.544 219.627 245.544 219.627L252.112 236.029L253.19 236.576C253.19 236.576 254.603 223.724 255.425 221.834C256.247 219.944 256.812 215.343 259.92 216.036C263.037 216.728 263.294 219.302 262.737 223.493C262.181 227.683 261.479 232.018 261.744 234.721C262.01 237.423 263.234 243.392 262.857 248.121C262.481 252.85 259.886 257.853 257.155 261.359C254.432 264.865 249.226 272.116 246.392 274.306C245.407 275.067 236.982 257.613 236.982 257.613L236.973 257.622Z" fill="#FFBE9D"/>
<path d="M240.287 235.824C240.287 235.824 240.261 235.414 240.304 234.678C240.364 233.857 240.432 232.814 240.518 231.566C240.715 228.94 241.023 225.315 241.391 221.312C241.58 219.32 241.76 217.413 241.922 215.677C242.008 214.813 242.059 214.001 241.948 213.257C241.845 212.513 241.554 211.872 241.126 211.41C240.261 210.469 239.139 210.23 238.446 210.238C237.718 210.238 237.341 210.426 237.324 210.384C237.324 210.367 237.41 210.324 237.59 210.247C237.778 210.178 238.061 210.093 238.437 210.067C239.174 210.016 240.372 210.204 241.357 211.205C241.845 211.701 242.188 212.419 242.308 213.206C242.445 214.001 242.393 214.847 242.325 215.72C242.171 217.464 241.999 219.363 241.828 221.364C241.46 225.366 241.1 228.983 240.826 231.6C240.681 232.84 240.561 233.883 240.467 234.696C240.372 235.422 240.304 235.833 240.278 235.824H240.287Z" fill="#EB996E"/>
<path d="M243.823 224.869C243.883 224.92 243.155 225.562 242.659 226.981C242.128 228.375 241.939 230.479 241.563 232.762C241.212 235.054 240.861 237.123 240.595 238.611C240.321 240.108 240.124 241.023 240.064 241.014C240.004 241.006 240.09 240.065 240.287 238.56C240.475 237.055 240.775 234.977 241.126 232.685C241.494 230.411 241.734 228.298 242.368 226.853C242.667 226.135 243.027 225.613 243.318 225.288C243.609 224.963 243.815 224.835 243.823 224.852V224.869Z" fill="#EB996E"/>
<path d="M241.408 203.414C241.408 203.414 241.52 203.705 241.64 204.261C241.76 204.808 241.905 205.603 242.068 206.595C242.393 208.571 242.753 211.316 242.984 214.369C243.207 217.421 243.258 220.192 243.224 222.193C243.207 223.194 243.181 224.006 243.138 224.562C243.104 225.118 243.07 225.426 243.035 225.426C242.967 225.426 242.958 224.186 242.907 222.193C242.856 220.192 242.761 217.439 242.539 214.403C242.316 211.367 242.008 208.622 241.76 206.638C241.511 204.654 241.349 203.431 241.408 203.414Z" fill="#EB996E"/>
<path d="M260.356 228.529C260.425 228.632 259.397 229.102 258.147 228.717C256.889 228.341 256.306 227.375 256.418 227.332C256.52 227.247 257.171 227.974 258.276 228.298C259.372 228.649 260.322 228.41 260.356 228.538V228.529Z" fill="#EB996E"/>
<path d="M237.341 254.287L219.985 261.573H209.642C209.642 261.573 199.418 264.762 197.843 274.332C196.267 283.909 196.045 288.835 200.54 290.015C205.035 291.195 217.733 291.332 224.027 289.245C230.32 287.159 246.803 273.87 246.803 273.87L248.395 264.258L237.333 254.278L237.341 254.287Z" fill="#FFBE9D"/>
<path d="M241.408 264.865C241.408 264.865 241.211 264.728 240.912 264.411C240.603 264.112 240.227 263.616 239.781 262.983C238.925 261.701 237.983 259.759 237.358 257.502C236.707 255.244 236.433 253.132 236.288 251.61C236.159 250.088 236.16 249.138 236.219 249.13C236.288 249.13 236.391 250.062 236.596 251.567C236.819 253.072 237.144 255.15 237.778 257.374C238.394 259.605 239.268 261.512 240.038 262.812C240.817 264.104 241.451 264.805 241.391 264.865H241.408Z" fill="#EB996E"/>
<path d="M248.96 267.91C248.866 267.876 249.645 266.559 249.945 264.198C250.091 263.027 250.074 261.599 249.74 260.068C249.406 258.537 248.678 256.964 247.616 255.493C246.563 254.014 245.373 252.731 244.38 251.491C243.369 250.251 242.564 249.045 242.033 247.951C241.503 246.856 241.254 245.89 241.16 245.214C241.074 244.539 241.109 244.162 241.134 244.162C241.22 244.145 241.194 245.693 242.316 247.805C242.864 248.857 243.686 250.02 244.696 251.226C245.707 252.44 246.905 253.723 247.984 255.228C249.072 256.724 249.834 258.383 250.151 259.965C250.476 261.547 250.45 263.027 250.262 264.224C250.074 265.43 249.74 266.362 249.466 266.978C249.337 267.285 249.209 267.516 249.115 267.67C249.029 267.824 248.969 267.901 248.96 267.893V267.91Z" fill="#EB996E"/>
<path d="M222.211 226.169C222.1 226.229 220.208 222.783 217.981 218.482C215.755 214.18 214.043 210.649 214.146 210.589C214.257 210.529 216.149 213.975 218.375 218.276C220.602 222.578 222.314 226.11 222.211 226.169Z" fill="white"/>
<path d="M250.279 194.974C250.167 194.923 251.341 192.058 252.89 188.569C254.449 185.08 255.802 182.292 255.913 182.343C256.024 182.395 254.851 185.26 253.301 188.749C251.743 192.238 250.39 195.025 250.279 194.974Z" fill="white"/>
<path d="M277.756 215.224C277.662 215.301 275.898 213.334 273.826 210.828C271.745 208.323 270.144 206.228 270.238 206.151C270.333 206.074 272.096 208.04 274.168 210.546C276.249 213.052 277.85 215.147 277.756 215.224Z" fill="white"/>
<path d="M271.436 243.076C271.334 243.008 272.661 241.007 274.399 238.612C276.137 236.218 277.627 234.336 277.721 234.413C277.824 234.482 276.497 236.483 274.758 238.877C273.02 241.272 271.53 243.153 271.436 243.076Z" fill="white"/>
<path d="M262.926 282.421C262.874 282.447 262.481 281.797 261.924 280.702C261.359 279.608 260.631 278.077 259.903 276.358C259.167 274.631 258.576 273.049 258.174 271.886C257.78 270.723 257.574 269.987 257.634 269.97C257.694 269.953 258.002 270.646 258.473 271.774C259.013 273.057 259.629 274.545 260.314 276.187C261.016 277.82 261.659 279.291 262.215 280.574C262.703 281.694 262.994 282.395 262.934 282.43L262.926 282.421Z" fill="white"/>
<path d="M287.106 265.695C287.081 265.814 284.752 265.464 281.909 264.916C279.058 264.369 276.771 263.822 276.797 263.702C276.823 263.582 279.152 263.933 281.994 264.48C284.846 265.028 287.132 265.575 287.106 265.695Z" fill="white"/>
<path d="M305.857 228.932C305.763 228.847 307.989 226.315 310.815 223.262C313.641 220.218 316.012 217.815 316.098 217.901C316.192 217.986 313.966 220.517 311.14 223.57C308.315 226.615 305.943 229.018 305.857 228.932Z" fill="white"/>
<path d="M324.729 277.958C324.635 278.035 321.869 274.836 318.547 270.809C315.225 266.781 312.613 263.454 312.708 263.377C312.802 263.3 315.567 266.499 318.89 270.526C322.212 274.554 324.823 277.881 324.729 277.958Z" fill="white"/>
<path d="M207.604 257.066C207.664 257.186 205.138 258.468 202.381 260.581C199.615 262.676 197.706 264.779 197.603 264.685C197.56 264.651 197.98 264.078 198.768 263.232C199.547 262.394 200.711 261.299 202.107 260.23C203.503 259.17 204.873 258.34 205.891 257.801C206.91 257.271 207.578 257.015 207.604 257.066Z" fill="white"/>
<path d="M214.659 238.167C214.762 238.236 213.863 239.767 212.647 241.588C211.431 243.409 210.37 244.829 210.267 244.761C210.164 244.692 211.063 243.161 212.279 241.34C213.495 239.519 214.557 238.099 214.659 238.167Z" fill="white"/>
<path d="M230.559 256.724C230.465 256.784 229.566 255.287 229.104 253.209C228.624 251.14 228.787 249.404 228.898 249.412C229.035 249.412 229.078 251.097 229.541 253.106C229.994 255.116 230.679 256.664 230.559 256.715V256.724Z" fill="white"/>
<path d="M232.915 197.787C232.932 197.907 231.459 198.223 229.618 198.48C227.777 198.745 226.27 198.856 226.253 198.736C226.236 198.617 227.709 198.3 229.55 198.044C231.391 197.779 232.897 197.668 232.915 197.787Z" fill="white"/>
<path d="M244.85 176.639C244.91 176.75 243.617 177.58 241.965 178.495C240.312 179.41 238.917 180.068 238.865 179.957C238.805 179.846 240.098 179.017 241.751 178.102C243.403 177.186 244.79 176.528 244.85 176.639Z" fill="white"/>
<path d="M278.423 185.575C278.329 185.652 276.848 183.874 275.118 181.607C273.388 179.341 272.07 177.451 272.173 177.374C272.267 177.298 273.748 179.076 275.478 181.342C277.207 183.609 278.526 185.498 278.423 185.575Z" fill="white"/>
<path d="M321.038 206.834C320.953 206.911 319.394 205.312 317.956 202.986C316.5 200.66 315.755 198.565 315.858 198.522C315.978 198.471 316.903 200.464 318.333 202.755C319.754 205.047 321.141 206.758 321.038 206.843V206.834Z" fill="white"/>
<path d="M337.308 212.188C337.419 212.239 336.631 214.223 335.544 216.609C334.456 219.003 333.489 220.902 333.369 220.85C333.258 220.799 334.045 218.815 335.133 216.429C336.22 214.035 337.188 212.136 337.308 212.188Z" fill="white"/>
<path d="M339.577 190.014C339.482 190.091 337.547 187.927 335.253 185.174C332.958 182.42 331.177 180.12 331.271 180.043C331.365 179.966 333.3 182.13 335.595 184.883C337.89 187.637 339.671 189.937 339.577 190.014Z" fill="white"/>
<path d="M314.736 172.004C314.616 172.004 314.437 170.157 314.351 167.857C314.257 165.565 314.291 163.701 314.411 163.692C314.531 163.692 314.711 165.54 314.796 167.84C314.89 170.132 314.856 171.996 314.736 172.004Z" fill="white"/>
<path d="M334.995 170.884C335.012 171.003 332.641 171.423 329.712 171.816C326.775 172.209 324.386 172.423 324.369 172.303C324.352 172.184 326.715 171.765 329.652 171.371C332.589 170.978 334.978 170.764 334.995 170.884Z" fill="white"/>
<path d="M366.899 194.29C366.787 194.341 365.366 191.63 363.714 188.235C362.07 184.84 360.819 182.035 360.931 181.984C361.042 181.933 362.463 184.644 364.116 188.039C365.76 191.434 367.01 194.238 366.899 194.29Z" fill="white"/>
<path d="M361.521 214.513C361.402 214.488 361.736 212.307 362.266 209.648C362.797 206.98 363.328 204.842 363.448 204.867C363.568 204.893 363.234 207.074 362.703 209.733C362.172 212.393 361.641 214.539 361.521 214.513Z" fill="white"/>
<path d="M376.318 230.454C376.198 230.496 375.067 227.555 373.775 223.886C372.49 220.217 371.54 217.207 371.66 217.165C371.779 217.122 372.91 220.063 374.203 223.732C375.487 227.401 376.437 230.411 376.318 230.454Z" fill="white"/>
<path d="M374.262 239.775C374.236 239.887 372.19 239.459 369.938 238.228C367.678 237.013 366.196 235.534 366.282 235.457C366.367 235.354 367.943 236.654 370.152 237.843C372.353 239.04 374.305 239.647 374.262 239.775Z" fill="white"/>
<path d="M393.219 261.042C393.108 261.094 392.423 259.794 391.687 258.143C390.95 256.493 390.445 255.116 390.556 255.065C390.668 255.014 391.353 256.313 392.089 257.964C392.825 259.614 393.331 260.991 393.219 261.042Z" fill="white"/>
<path d="M281.258 290.699C281.138 290.716 280.838 289.015 280.59 286.911C280.341 284.807 280.247 283.089 280.367 283.071C280.487 283.054 280.787 284.756 281.035 286.86C281.283 288.963 281.378 290.682 281.258 290.699Z" fill="white"/>
<path d="M339.422 289.228C339.302 289.202 339.55 287.543 339.978 285.525C340.406 283.507 340.852 281.891 340.972 281.916C341.091 281.942 340.843 283.601 340.415 285.619C339.987 287.637 339.542 289.253 339.422 289.228Z" fill="white"/>
<path d="M350.57 119.661L358.088 106.423C354.757 101.027 352.839 94.6818 352.839 87.8834C352.839 68.3261 368.714 52.4717 388.296 52.4717C407.878 52.4717 423.753 68.3261 423.753 87.8834C423.753 107.441 407.878 123.295 388.296 123.295C380.119 123.295 372.593 120.524 366.599 115.881V115.898L350.57 119.669V119.661Z" fill="#FAFAFA"/>
<path d="M350.57 119.661C351.332 119.49 356.41 118.327 366.633 115.992L366.796 115.958L366.693 115.821V115.804L366.53 115.958C368.551 117.523 370.974 119.062 373.826 120.353C376.677 121.619 379.948 122.645 383.552 123.124C385.351 123.355 387.234 123.5 389.169 123.406C390.137 123.355 391.122 123.329 392.115 123.244C393.1 123.098 394.101 122.944 395.112 122.79C399.127 121.995 403.229 120.473 407.065 118.104C410.892 115.735 414.437 112.529 417.28 108.586C420.114 104.644 422.263 99.9751 423.273 94.904C424.267 89.833 424.19 84.4028 422.854 79.1437C421.51 73.9016 419.001 68.7878 415.25 64.5805L413.803 62.9899C413.324 62.4512 412.759 62.015 412.245 61.519C411.706 61.0573 411.218 60.5271 410.635 60.1166L408.931 58.8424C408.383 58.3977 407.775 58.0386 407.168 57.6794C406.568 57.3117 405.969 56.9525 405.369 56.5848C404.736 56.277 404.111 55.9777 403.486 55.6698C402.852 55.3791 402.244 55.037 401.585 54.8232C396.43 52.7794 390.942 52.0012 385.684 52.3861C380.427 52.7623 375.401 54.2674 371.094 56.696C366.77 59.099 363.123 62.3143 360.306 65.8974C357.48 69.489 355.493 73.4398 354.26 77.382C353.036 81.3414 352.702 85.2665 352.719 88.9009C352.822 92.5438 353.49 95.9045 354.457 98.8463C355.425 101.797 356.701 104.336 358.011 106.466V106.363C353.267 114.855 350.947 119.002 350.579 119.652C350.955 119.002 353.327 114.889 358.191 106.466L358.225 106.414L358.191 106.363C356.898 104.234 355.648 101.702 354.697 98.7693C353.755 95.8361 353.105 92.5096 353.019 88.8923C353.019 85.2836 353.361 81.4012 354.586 77.4847C355.819 73.5852 357.797 69.6772 360.597 66.1283C363.388 62.588 367.001 59.4154 371.283 57.0466C375.547 54.6522 380.521 53.1728 385.71 52.8051C390.899 52.4374 396.328 53.207 401.414 55.2251C402.064 55.4304 402.664 55.7724 403.289 56.0632C403.905 56.3625 404.53 56.6618 405.147 56.9697C405.738 57.3288 406.328 57.688 406.919 58.0471C407.519 58.4063 408.118 58.7569 408.657 59.2016L410.336 60.4587C410.909 60.8606 411.389 61.3822 411.92 61.844C412.425 62.3314 412.99 62.7676 413.461 63.2977L414.891 64.8712C418.598 69.0272 421.073 74.0812 422.4 79.2548C423.719 84.4456 423.804 89.8159 422.828 94.8271C421.835 99.8382 419.72 104.465 416.92 108.356C414.12 112.264 410.618 115.445 406.834 117.788C403.049 120.148 398.99 121.662 395.017 122.457C394.016 122.611 393.022 122.765 392.055 122.91C391.07 122.996 390.103 123.021 389.144 123.081C387.226 123.184 385.359 123.038 383.578 122.816C379.999 122.354 376.754 121.345 373.92 120.105C371.086 118.84 368.671 117.326 366.65 115.787L365.991 115.282L366.496 115.941V115.958L366.573 115.787C356.384 118.258 351.315 119.481 350.562 119.669L350.57 119.661Z" fill="#263238"/>
<path d="M397.868 86.4038C397.868 88.3108 399.418 89.8671 401.336 89.8671C403.254 89.8671 404.804 88.3193 404.804 86.4038C404.804 84.4883 403.254 82.9404 401.336 82.9404C399.418 82.9404 397.868 84.4883 397.868 86.4038Z" fill="#263238"/>
<path d="M384.006 86.4038C384.006 88.3108 385.556 89.8671 387.474 89.8671C389.392 89.8671 390.941 88.3193 390.941 86.4038C390.941 84.4883 389.392 82.9404 387.474 82.9404C385.556 82.9404 384.006 84.4883 384.006 86.4038Z" fill="#263238"/>
<path d="M370.169 84.6763C369.21 86.3353 369.784 88.4475 371.436 89.4053C373.097 90.363 375.212 89.7901 376.171 88.1397C377.13 86.4807 376.557 84.3685 374.904 83.4107C373.243 82.4529 371.128 83.0259 370.169 84.6763Z" fill="#263238"/>
</g>
<defs>
<clipPath id="clip0_408_64857">
<rect width="604" height="343" fill="white"/>
</clipPath>
</defs>
</svg>
