<svg xmlns="http://www.w3.org/2000/svg" width="65" height="64" viewBox="0 0 65 64" fill="none">
  <path d="M11.1371 39.0948L7.08375 35.0414C5.43042 33.3881 5.43042 30.6681 7.08375 29.0147L11.1371 24.9614C11.8304 24.268 12.3904 22.908 12.3904 21.948V16.2146C12.3904 13.8679 14.3104 11.948 16.6571 11.948H22.3904C23.3504 11.948 24.7104 11.3881 25.4037 10.6948L29.457 6.64137C31.1104 4.98803 33.8304 4.98803 35.4837 6.64137L39.5371 10.6948C40.2305 11.3881 41.5904 11.948 42.5504 11.948H48.2838C50.6305 11.948 52.5504 13.8679 52.5504 16.2146V21.948C52.5504 22.908 53.1104 24.268 53.8037 24.9614L57.8571 29.0147C59.5104 30.6681 59.5104 33.3881 57.8571 35.0414L53.8037 39.0948C53.1104 39.7881 52.5504 41.1482 52.5504 42.1082V47.8412C52.5504 50.1879 50.6305 52.1082 48.2838 52.1082H42.5504C41.5904 52.1082 40.2305 52.6681 39.5371 53.3614L35.4837 57.4148C33.8304 59.0681 31.1104 59.0681 29.457 57.4148L25.4037 53.3614C24.7104 52.6681 23.3504 52.1082 22.3904 52.1082H16.6571C14.3104 52.1082 12.3904 50.1879 12.3904 47.8412V42.1082C12.3904 41.1215 11.8304 39.7615 11.1371 39.0948Z" stroke="#292D32" stroke-width="1.5" stroke-linecap="round" stroke-linejoin="round"/>
  <path d="M24.5 40L40.5 24" stroke="#339933" stroke-width="1.5" stroke-linecap="round" stroke-linejoin="round"/>
  <path d="M39.1523 38.667H39.1763" stroke="#339933" stroke-width="2" stroke-linecap="round" stroke-linejoin="round"/>
  <path d="M25.8187 25.3333H25.8426" stroke="#339933" stroke-width="2" stroke-linecap="round" stroke-linejoin="round"/>
</svg>