<svg xmlns="http://www.w3.org/2000/svg" width="65" height="64" viewBox="0 0 65 64" fill="none">
  <path d="M56.7131 22.8798V41.1197C56.7131 44.1063 55.1131 46.8798 52.5264 48.3998L36.6864 57.5464C34.0998 59.0398 30.8998 59.0398 28.2864 57.5464L12.4464 48.3998C9.85977 46.9064 8.25977 44.133 8.25977 41.1197V22.8798C8.25977 19.8931 9.85977 17.1197 12.4464 15.5997L28.2864 6.45301C30.8731 4.95967 34.0731 4.95967 36.6864 6.45301L52.5264 15.5997C55.1131 17.1197 56.7131 19.8664 56.7131 22.8798Z" stroke="#292D32" stroke-width="1.5" stroke-linecap="round" stroke-linejoin="round"/>
  <path d="M32.4995 29.3328C35.931 29.3328 38.7128 26.551 38.7128 23.1195C38.7128 19.6879 35.931 16.9062 32.4995 16.9062C29.0679 16.9062 26.2861 19.6879 26.2861 23.1195C26.2861 26.551 29.0679 29.3328 32.4995 29.3328Z" stroke="#339933" stroke-width="1.5" stroke-linecap="round" stroke-linejoin="round"/>
  <path d="M43.1663 44.4256C43.1663 39.6256 38.393 35.7324 32.4997 35.7324C26.6063 35.7324 21.833 39.6256 21.833 44.4256" stroke="#339933" stroke-width="1.5" stroke-linecap="round" stroke-linejoin="round"/>
</svg>